<svg xmlns="http://www.w3.org/2000/svg" xmlns:xlink="http://www.w3.org/1999/xlink" version="1.1" x="0px" y="0px" viewBox="139.5 0 221 500" enable-background="new 139.5 0 221 500" xml:space="preserve" style="fill: rgb(0, 0, 0);">
<g id="__id98_sl92i6tf1e">
	<path d="M268,267.5c51.9-10.9,92.5-66.3,92.5-132.8C360.5,60.4,310.9,0,250.1,0c-61,0-110.5,60.4-110.5,134.7   c0,66.4,40.3,121.9,92.4,132.8c0,0.1,0.5,0.2,0.5,0.3v55.8h-8.5c-3,0-7.8,3.2-7.8,6.2v166.1c0,3,4.9,4.1,7.8,4.1H276   c3,0,7.6-1.1,7.6-4.1V329.8c0-3-4.6-6.2-7.6-6.2h-8.7v-55.8C267.3,267.7,268,267.6,268,267.5z M272.7,335.5v2.1l-2,0.9   c-2.2,2.2-1.6,5.6,0.5,7.7c0.2,0.2,1.4,0.4,1.4,0.5v1.4c0-0.7-1.7-1.2-2.3-1.7c-2.2-2.2-6.1-2.2-8.3,0l-8.3,8.1   c-2.2,2.2-2.3,5.6-0.1,7.7c1.1,1.1,2.4,1.6,3.8,1.6c1.4,0,2.7-0.5,3.8-1.6l9.1-8.1c0.5-0.5,2.3-1.1,2.3-1.7v30.4l-2,0.9   c-2.2,2.2-1.6,5.6,0.5,7.7c0.2,0.2,1.4,0.4,1.4,0.5v1.4c0-0.7-1.7-1.2-2.3-1.7c-2.2-2.2-6.1-2.2-8.3,0l-8.3,8.1   c-2.2,2.2-2.3,5.6-0.1,7.7c1.1,1.1,2.4,1.6,3.8,1.6c1.4,0,2.7-0.5,3.8-1.6l9.1-8.1c0.5-0.5,2.3-1.1,2.3-1.7V428l-2,0.9   c-2.2,2.2-1.6,5.6,0.5,7.7c0.2,0.2,1.4,0.4,1.4,0.5v1.4c0-0.7-1.7-1.2-2.3-1.7c-2.2-2.2-6.1-2.2-8.3,0l-8.3,8.1   c-2.2,2.2-2.3,5.6-0.1,7.7c1.1,1.1,2.4,1.6,3.8,1.6c1.4,0,2.7-0.5,3.8-1.6l9.1-8.1c0.5-0.5,2.3-1.1,2.3-1.7v46.1h-45.7v-4.4l9-7.8   c2.2-2.2,2.7-5.6,0.7-7.7c-2.2-2.2-6.5-2.2-8.7,0l-1,0.1v-29.7l9-7.8c2.2-2.2,2.7-5.6,0.7-7.7c-2.2-2.2-6.5-2.2-8.7,0l-1,0.1v-29.6   l9-7.8c2.2-2.2,2.7-5.6,0.7-7.7c-2.2-2.2-6.5-2.2-8.7,0l-1,0.1v-43.2h9.1h0.1h26.8h0.1L272.7,335.5L272.7,335.5z M244.4,323.6   v-51.2h10.9v51.2H244.4z M250.1,258.5c-54.9,0-99.5-55.5-99.5-123.8s44.7-123.8,99.5-123.8s99.5,55.5,99.5,123.8   S304.9,258.5,250.1,258.5z" style="fill: rgb(255, 255, 255);"></path>
	<path d="M250.1,21.6c-48.5,0-87.8,50.8-87.8,113.3c0,62.4,39.4,113.2,87.8,113.2c48.5,0,87.8-50.8,87.8-113.2   C337.8,72.3,298.4,21.6,250.1,21.6z M213.9,101.4v13.1h-18.5v-13.1H213.9z M195.4,90.5V76.3h18.5v14.2H195.4z M213.9,125.4v14.2   h-18.5v-14.2C195.4,125.4,213.9,125.4,213.9,125.4z M213.9,150.4v14.2h-18.5v-14.2H213.9z M213.9,175.5v13.1h-18.5v-13.1H213.9z    M255.3,188.5v-13.1h19.6v13.1H255.3z M274.9,199.4v16.3h-19.6v-16.3H274.9z M255.3,164.6v-14.2h19.6v14.2H255.3z M255.3,139.5   v-14.2h19.6v14.2H255.3z M255.3,114.5v-13.1h19.6v13.1H255.3z M255.3,90.5V76.3h19.6v14.2H255.3z M255.3,65.5V51.3h19.6v14.2H255.3   z M225.9,188.5v-13.1h18.5v13.1H225.9z M244.4,199.4v16.3h-18.5v-16.3H244.4z M225.9,164.6v-14.2h18.5v14.2H225.9z M225.9,139.5   v-14.2h18.5v14.2H225.9z M225.9,114.5v-13.1h18.5v13.1H225.9z M225.9,90.5V76.3h18.5v14.2H225.9z M225.9,65.5V51.3h18.5v14.2H225.9   z M225.9,40.4v-2.6v-0.1c5.9-2.6,12.1-4.2,18.5-4.9v7.6H225.9z M225.9,226.6h18.5v8.9c0,0.4,0,0.8,0.1,1.2   c-6.6-0.7-13.2-2.4-19.3-5.1c0.3-0.7,0.7-1.5,0.7-2.3C225.9,229.4,225.9,226.6,225.9,226.6z M255.3,235.6v-8.9h19.6v4.9   c-6.2,2.8-12.9,4.7-19.7,5.2C255.3,236.4,255.3,236,255.3,235.6z M274.9,40.4h-19.6v-7.7c7,0.7,13.7,2.5,20,5.4   C275.1,38.9,274.9,39.5,274.9,40.4L274.9,40.4z M285.8,139.5v-14.2h18.5v14.2H285.8z M304.3,150.4v14.2h-18.5v-14.2H304.3z    M285.8,114.5v-13.1h18.5v13.1H285.8z M285.8,90.5V76.3h18.5v14.2H285.8z M285.8,175.5h18.5v13.1h-18.5V175.5z M315.2,188.8v-13.4   h5.3C319,180.1,317.3,184.6,315.2,188.8z M326.8,134.7c0,1.6,0,3.4-0.1,5c-0.4-0.1-1-0.2-1.5-0.2h-10v-14.2h10   c0.4,0,0.9-0.1,1.3-0.1C326.7,128.4,326.8,131.6,326.8,134.7z M325.3,114.5h-10v-13.1h7.5C323.8,105.6,324.7,110,325.3,114.5   L325.3,114.5z M315.2,90.5v-9.8c1.5,3.2,2.8,6.4,4.1,9.8H315.2z M315.2,164.6v-14.2h10c0.2,0,0.4,0,0.8-0.1   c-0.5,4.9-1.4,9.6-2.4,14.3H315.2z M306.5,65.5h-20.7V51.3h8.6C298.8,55.4,302.9,60.2,306.5,65.5z M205.7,51.3   c0.2,0,0.4,0.1,0.7,0.1h7.6v14.2h-19.4c-0.1-0.3-0.3-0.7-0.5-0.9C197.7,59.7,201.5,55.2,205.7,51.3z M179.5,175.5h5v12.7   C182.6,184.2,181,179.9,179.5,175.5z M177.7,101.4h6.8v13.1h-9.8c0.7-4.5,1.6-8.8,2.7-13.1C177.5,101.4,177.6,101.4,177.7,101.4z    M180.8,90.5c1.2-3.2,2.4-6.2,3.8-9.3v9.3H180.8z M174,150.4h10.5v14.2h-8C175.5,160,174.6,155.3,174,150.4z M173.3,139.5   c-0.1-1.6-0.1-3.2-0.1-4.8c0-3.2,0.1-6.3,0.3-9.4h11v14.2H173.3z M195.4,206.6L195.4,206.6v-7.2h18.5v16.3h-10.8   C200.4,212.9,197.9,209.9,195.4,206.6z M296.9,215.7c-0.1,0-0.2,0-0.2,0h-10.8v-16.3h18.5v7.6C302,210.2,299.5,213.1,296.9,215.7z" style="fill: rgb(255, 255, 255);"></path>
	<path d="M245.6,362.7l-8.1,8.1c-2.2,2.2-2.2,5.6,0,7.7c1.1,1.1,2.5,1.6,3.9,1.6c1.4,0,2.8-0.5,3.9-1.6l8.1-8.1   c2.2-2.2,2.2-5.6,0-7.7S247.8,360.5,245.6,362.7z" style="fill: rgb(255, 255, 255);"></path>
	<path d="M245.6,407.9l-8.1,8.1c-2.2,2.2-2.2,5.6,0,7.7c1.1,1.1,2.5,1.6,3.9,1.6c1.4,0,2.8-0.5,3.9-1.6l8.1-8.1   c2.2-2.2,2.2-5.6,0-7.7C251.3,405.8,247.8,405.8,245.6,407.9z" style="fill: rgb(255, 255, 255);"></path>
	<path d="M245.6,453.2l-8.1,8.1c-2.2,2.2-2.2,5.6,0,7.7c1.1,1.1,2.5,1.6,3.9,1.6c1.4,0,2.8-0.5,3.9-1.6l8.1-8.1   c2.2-2.2,2.2-5.6,0-7.7C251.3,451,247.8,451,245.6,453.2z" style="fill: rgb(255, 255, 255);"></path>
</g>
</svg>