<svg xmlns="http://www.w3.org/2000/svg" xmlns:xlink="http://www.w3.org/1999/xlink" version="1.1" x="0px" y="0px" viewBox="0 0 185.1 266" enable-background="new 0 0 185.1 266" xml:space="preserve" style="fill: rgb(0, 0, 0);">
<g id="__id81_sfk8a6019p">
	<path d="M137.5,119.2c0,0,52.2,90.6,45.6,108.5c0,0-23.8-14.2-36.6-46.2c-10.6-26.6-16.7-62.3-16.7-62.3H137.5z" style="fill: rgb(255, 255, 255);"></path>
</g>
<g id="__id82_sfk8a6019p">
	<path id="__id83_sfk8a6019p" d="M183,229.3c-0.3,0-0.5-0.1-0.8-0.2c-1-0.6-24.4-14.9-37.2-47   c-10.5-26.4-16.7-62.2-16.8-62.6c-0.1-0.4,0-0.9,0.3-1.2c0.3-0.3,0.7-0.5,1.1-0.5h7.7c0.5,0,1,0.3,1.3,0.8   c0.1,0.2,13.2,23,25.3,47.6c16.4,33.4,23.3,54.3,20.4,62.2c-0.2,0.4-0.5,0.7-0.9,0.9C183.4,229.2,183.2,229.3,183,229.3z    M131.6,120.7c1.4,7.5,7.2,37.4,16.3,60.2c10.4,26.1,28.5,40.4,34.2,44.4c2-17.4-31.4-80-45.5-104.6H131.6z" style="fill: rgb(0, 89, 1);"></path>
</g>
<g id="__id84_sfk8a6019p">
	<path d="M121.3,119.2c0,0,57.5,83.5,45.4,125.4c0,0-49.2-29.9-49.8-125.4H121.3z" style="fill: rgb(255, 255, 255);"></path>
</g>
<g id="__id85_sfk8a6019p">
	<path d="M166.7,246.1c-0.3,0-0.5-0.1-0.8-0.2c-0.5-0.3-12.7-7.9-25.2-27.4c-11.4-17.9-25-49.6-25.3-99.3   c0-0.4,0.2-0.8,0.4-1.1c0.3-0.3,0.7-0.4,1.1-0.4h4.4c0.5,0,1,0.2,1.2,0.6c0.1,0.2,14.6,21.3,27.4,47.2c17.2,35,23.4,61.7,18.2,79.5   c-0.1,0.4-0.5,0.8-0.9,1C167,246.1,166.8,246.1,166.7,246.1z M118.4,120.7c0.9,82.4,38.8,115.1,47.3,121.4   c9-39.4-40-113.7-45.2-121.4H118.4z" style="fill: rgb(0, 89, 1);"></path>
</g>
<g id="__id86_sfk8a6019p">
	<path d="M109,119.2c0,0,45.2,91.4,27.3,131.3c0,0-44.8-36.7-31.9-131.3H109z" style="fill: rgb(255, 255, 255);"></path>
</g>
<g id="__id87_sfk8a6019p">
	<path d="M136.3,252c-0.3,0-0.7-0.1-1-0.3c-0.5-0.4-11.6-9.6-21.2-30.7c-8.8-19.3-17.9-52.7-11.2-101.9   c0.1-0.7,0.7-1.3,1.5-1.3h4.6c0.6,0,1.1,0.3,1.3,0.8c0.1,0.2,11.5,23.3,20.4,50.9c12.1,37.3,14.5,64.8,6.8,81.6   c-0.2,0.4-0.6,0.7-1,0.8C136.5,252,136.4,252,136.3,252z M105.7,120.7c-6.3,47.7,2.5,80,11.1,98.8c7.3,16,15.6,25.1,18.9,28.4   c14.4-37.6-23.3-118.1-27.7-127.2H105.7z" style="fill: rgb(0, 89, 1);"></path>
</g>
<g id="__id88_sfk8a6019p">
	<path d="M97.2,118.9h-4h-0.4h-4c0,0-21.4,94.5-12.6,117.4c7.5,19.5,16.7,28.2,16.7,28.2s9.5-8.7,17-28.2   C118.6,213.3,97.2,118.9,97.2,118.9z" style="fill: rgb(255, 255, 255);"></path>
</g>
<g id="__id89_sfk8a6019p">
	<path d="M92.8,266c-0.4,0-0.8-0.2-1.1-0.5c-0.6-0.6-0.5-1.6,0.1-2.1c0.1-0.1,9.4-8.6,16.6-27.5   c8-20.8-10-104.3-12.4-115.2h-3.3c-0.8,0-1.5-0.7-1.5-1.5s0.7-1.5,1.5-1.5h4.5c0.7,0,1.3,0.5,1.5,1.2c0.9,3.9,21.4,95,12.5,118.1   c-7.5,19.6-17,28.3-17.4,28.7C93.5,265.9,93.2,266,92.8,266z" style="fill: rgb(0, 89, 1);"></path>
	<path d="M92.8,266c-0.4,0-0.7-0.1-1-0.4c-0.4-0.4-9.6-9-17.1-28.7c-8.8-23,11.7-114.2,12.5-118.1   c0.2-0.7,0.8-1.2,1.5-1.2h4.5c0.8,0,1.5,0.7,1.5,1.5s-0.7,1.5-1.5,1.5h-3.3c-2.4,10.9-20.4,94.3-12.4,115.2   c7.2,18.9,16.2,27.5,16.3,27.5c0.6,0.6,0.6,1.5,0.1,2.1C93.6,265.9,93.2,266,92.8,266z" style="fill: rgb(0, 89, 1);"></path>
</g>
<g id="__id90_sfk8a6019p">
	<path d="M47.7,119.2c0,0-52.2,90.6-45.6,108.5c0,0,23.8-14.2,36.6-46.2c10.6-26.6,16.7-62.3,16.7-62.3H47.7z" style="fill: rgb(255, 255, 255);"></path>
</g>
<g id="__id91_sfk8a6019p">
	<path d="M2.1,229.3c-0.2,0-0.3,0-0.5-0.1c-0.4-0.1-0.8-0.5-0.9-0.9c-2.9-7.9,3.9-28.8,20.4-62.2   c12.1-24.6,25.2-47.4,25.3-47.6c0.3-0.5,0.8-0.8,1.3-0.8h7.7c0.4,0,0.9,0.2,1.1,0.5c0.3,0.3,0.4,0.8,0.3,1.2   c-0.1,0.4-6.2,36.1-16.8,62.6c-12.8,32.1-36.2,46.4-37.2,47C2.6,229.2,2.3,229.3,2.1,229.3z M48.5,120.7   C34.4,145.3,1.1,207.9,3,225.3c5.7-4,23.8-18.2,34.2-44.4c9.1-22.8,14.9-52.8,16.3-60.2H48.5z" style="fill: rgb(0, 89, 1);"></path>
</g>
<g id="__id92_sfk8a6019p">
	<path d="M63.8,119.2c0,0-57.5,83.5-45.4,125.4c0,0,49.2-29.9,49.8-125.4H63.8z" style="fill: rgb(255, 255, 255);"></path>
</g>
<g id="__id93_sfk8a6019p">
	<path d="M18.5,246.1c-0.2,0-0.4,0-0.5-0.1c-0.4-0.2-0.8-0.5-0.9-1c-5.2-17.8,1-44.5,18.2-79.5   c12.8-25.9,27.2-46.9,27.4-47.2c0.3-0.4,0.7-0.6,1.2-0.6h4.4c0.4,0,0.8,0.2,1.1,0.4c0.3,0.3,0.4,0.7,0.4,1.1   c-0.3,49.7-13.9,81.4-25.3,99.3C32,238,19.7,245.6,19.2,245.9C19,246,18.7,246.1,18.5,246.1z M64.6,120.7   c-5.2,7.7-54.3,82-45.2,121.4c3.8-2.8,13.2-10.6,22.6-25.4c11-17.4,24.2-48,24.7-96H64.6z" style="fill: rgb(0, 89, 1);"></path>
</g>
<g id="__id94_sfk8a6019p">
	<path d="M76.1,119.2c0,0-45.2,91.4-27.3,131.3c0,0,44.8-36.7,31.9-131.3H76.1z" style="fill: rgb(255, 255, 255);"></path>
</g>
<g id="__id95_sfk8a6019p">
	<path d="M128,52.6H56.4c0-21.9,0.4-51.1,36-51.1C128,1.5,128,30.6,128,52.6z" style="fill: rgb(255, 255, 255);"></path>
</g>
<g id="__id96_sfk8a6019p">
	<path d="M48.8,252c-0.1,0-0.2,0-0.3,0c-0.5-0.1-0.8-0.4-1-0.8c-7.6-16.9-5.3-44.3,6.9-81.6   c9-27.6,20.3-50.7,20.4-50.9c0.3-0.5,0.8-0.8,1.3-0.8h4.6c0.8,0,1.4,0.6,1.5,1.3c6.7,49.2-2.4,82.6-11.2,101.9   c-9.6,21.1-20.7,30.3-21.2,30.7C49.5,251.9,49.1,252,48.8,252z M77,120.7c-4.4,9.1-42.1,89.6-27.7,127.2   c3.3-3.3,11.7-12.4,18.9-28.4c8.5-18.8,17.3-51.1,11.1-98.8H77z" style="fill: rgb(0, 89, 1);"></path>
</g>
<g id="__id97_sfk8a6019p">
	<g>
		<polygon points="128,52.6 128,71.2 56.8,71.2 56.4,53.9 56.4,52.6   " style="fill: rgb(0, 89, 1);"></polygon>
		<path d="M129.5,72.7H55.3l-0.4-21.6h74.6V72.7z M58.3,69.7h68.2V54.1H57.9L58.3,69.7z" style="fill: rgb(0, 89, 1);"></path>
	</g>
	<g>
		<path d="M129.5,54.1H54.9l0-1.5C55,31.6,55,0,92.4,0c0,0,0,0,0,0c16.4,0,27,5.9,32.5,18.2    c4.6,10.3,4.6,23.1,4.6,34.4L129.5,54.1z M57.9,51.1h68.6c0-10.6-0.2-22.4-4.3-31.7C117.3,8.4,107.5,3,92.4,3c0,0,0,0,0,0    C58.8,3,58,30.3,57.9,51.1z" style="fill: rgb(0, 89, 1);"></path>
	</g>
	<g>
		<rect x="46.8" y="88.6" width="91.8" height="7.5" style="fill: rgb(255, 255, 255);"></rect>
		<path d="M140.1,97.6H45.3V87.1h94.8V97.6z M48.3,94.6h88.8v-4.5H48.3V94.6z" style="fill: rgb(0, 89, 1);"></path>
	</g>
	<g>
		<rect x="37.5" y="111.7" width="110.6" height="7.5" style="fill: rgb(255, 255, 255);"></rect>
		<path d="M149.6,120.7H36v-10.5h113.6V120.7z M39,117.7h107.6v-4.5H39V117.7z" style="fill: rgb(0, 89, 1);"></path>
	</g>
	<g>
		
			<rect x="104.9" y="93.6" transform="matrix(0.3083 0.9513 -0.9513 0.3083 180.5536 -58.0134)" width="50.6" height="3" style="fill: rgb(0, 89, 1);"></rect>
	</g>
	<g>
		<rect x="91.2" y="71.2" width="3" height="48" style="fill: rgb(0, 89, 1);"></rect>
	</g>
	<g>
		
			<rect x="93.2" y="93.7" transform="matrix(0.1801 0.9837 -0.9837 0.1801 190.0767 -37.7185)" width="48.9" height="3" style="fill: rgb(0, 89, 1);"></rect>
	</g>
	<g>
		
			<rect x="82" y="93.7" transform="matrix(0.1117 0.9937 -0.9937 0.1117 188.9459 -20.9815)" width="48.4" height="3" style="fill: rgb(0, 89, 1);"></rect>
	</g>
	<g>
		
			<rect x="53.3" y="69.8" transform="matrix(0.9514 0.308 -0.308 0.9514 31.9813 -12.251)" width="3" height="50.8" style="fill: rgb(0, 89, 1);"></rect>
	</g>
	<g>
		<rect x="65.5" y="70.6" transform="matrix(0.9836 0.1803 -0.1803 0.9836 18.252 -10.529)" width="3" height="49" style="fill: rgb(0, 89, 1);"></rect>
	</g>
	<g>
		
			<rect x="77.9" y="71" transform="matrix(0.9936 0.1126 -0.1126 0.9936 11.2251 -8.3383)" width="3" height="48.4" style="fill: rgb(0, 89, 1);"></rect>
	</g>
</g>
</svg>