<?xml version="1.0" encoding="UTF-8"?>
<svg xmlns="http://www.w3.org/2000/svg" xmlns:xlink="http://www.w3.org/1999/xlink" width="1729.14pt" height="1729.13pt" viewBox="0 0 1729.14 1729.13" version="1.1">
<defs>
<clipPath id="clip1">
  <path d="M 0 0 L 1729.140625 0 L 1729.140625 1729.128906 L 0 1729.128906 Z M 0 0 "/>
</clipPath>
</defs>
<g id="surface1">
<g clip-path="url(#clip1)" clip-rule="nonzero">
<path style=" stroke:none;fill-rule:nonzero;fill:rgb(75.698853%,14.898682%,20.799255%);fill-opacity:1;" d="M 861.5625 133.480469 C 459.085938 133.480469 132.8125 459.75 132.8125 862.230469 C 132.8125 1264.710938 459.085938 1590.980469 861.5625 1590.980469 C 1264.039063 1590.980469 1590.320313 1264.710938 1590.320313 862.230469 C 1590.320313 459.75 1264.039063 133.480469 861.5625 133.480469 M 1729.128906 864.5625 C 1729.128906 1342.050781 1342.050781 1729.128906 864.566406 1729.128906 C 387.078125 1729.128906 0 1342.050781 0 864.5625 C 0 387.070313 387.078125 0 864.566406 0 C 1342.050781 0 1729.128906 387.070313 1729.128906 864.5625 "/>
</g>
<path style=" stroke:none;fill-rule:nonzero;fill:rgb(75.698853%,14.898682%,20.799255%);fill-opacity:1;" d="M 863.460938 169.980469 C 480.6875 169.980469 169.273438 481.390625 169.273438 864.164063 C 169.273438 1246.945313 480.6875 1558.359375 863.460938 1558.359375 C 1246.238281 1558.359375 1557.648438 1246.945313 1557.648438 864.164063 C 1557.648438 481.390625 1246.238281 169.980469 863.460938 169.980469 M 863.460938 1584.78125 C 766.1875 1584.78125 671.8125 1565.726563 582.964844 1528.148438 C 497.152344 1491.851563 420.085938 1439.894531 353.910156 1373.71875 C 287.738281 1307.546875 235.78125 1230.480469 199.484375 1144.667969 C 161.90625 1055.816406 142.851563 961.445313 142.851563 864.164063 C 142.851563 766.890625 161.90625 672.519531 199.484375 583.671875 C 235.78125 497.859375 287.738281 420.789063 353.914063 354.621094 C 420.089844 288.441406 497.152344 236.488281 582.964844 200.191406 C 671.8125 162.609375 766.1875 143.558594 863.460938 143.558594 C 960.738281 143.558594 1055.109375 162.609375 1143.960938 200.191406 C 1229.769531 236.488281 1306.828125 288.441406 1373.011719 354.621094 C 1439.179688 420.789063 1491.140625 497.859375 1527.441406 583.671875 C 1565.019531 672.519531 1584.070313 766.890625 1584.070313 864.164063 C 1584.070313 961.441406 1565.019531 1055.816406 1527.441406 1144.667969 C 1491.140625 1230.480469 1439.179688 1307.546875 1373.011719 1373.71875 C 1306.839844 1439.894531 1229.769531 1491.851563 1143.960938 1528.148438 C 1055.109375 1565.726563 960.738281 1584.78125 863.460938 1584.78125 "/>
<path style=" stroke:none;fill-rule:evenodd;fill:rgb(75.698853%,14.898682%,20.799255%);fill-opacity:1;" d="M 711.597656 843.128906 C 710.84375 844.96875 709.714844 846.742188 709.390625 848.65625 C 703.40625 883.800781 697.519531 918.960938 691.617188 954.121094 C 688.449219 973.007813 685.285156 991.898438 682.15625 1010.789063 C 681.789063 1013.003906 680.679688 1014.105469 678.414063 1014.0625 C 662.988281 1013.785156 647.5625 1013.515625 632.136719 1013.269531 C 630.128906 1013.234375 629.6875 1012.386719 630.003906 1010.464844 C 635.144531 979.359375 640.226563 948.246094 645.324219 917.136719 C 650.933594 882.921875 656.546875 848.710938 662.15625 814.496094 C 667.558594 781.546875 672.964844 748.59375 678.367188 715.640625 C 681.226563 698.199219 684.097656 680.75 686.929688 663.300781 C 687.691406 658.628906 688.355469 657.96875 692.988281 658.050781 C 699.472656 658.179688 705.957031 658.320313 712.445313 658.488281 C 716.488281 658.589844 717.078125 659.070313 718.070313 662.96875 C 721.058594 674.769531 724.027344 686.578125 727.019531 698.390625 C 737.226563 738.648438 747.421875 778.914063 757.695313 819.160156 C 758.351563 821.738281 759.625 824.160156 760.609375 826.65625 C 760.992188 826.675781 761.371094 826.691406 761.753906 826.710938 C 762.371094 825.394531 763.214844 824.136719 763.570313 822.753906 C 773.648438 783.980469 783.6875 745.191406 793.710938 706.398438 C 797.496094 691.761719 801.277344 677.121094 804.949219 662.449219 C 805.628906 659.738281 806.800781 658.519531 809.773438 658.589844 C 816.941406 658.78125 824.121094 658.75 831.292969 658.589844 C 834.164063 658.519531 835.285156 659.691406 835.734375 662.390625 C 838.554688 679.339844 841.480469 696.269531 844.363281 713.21875 C 850.945313 751.945313 857.5 790.683594 864.101563 829.40625 C 870.683594 868.035156 877.335938 906.652344 883.902344 945.285156 C 887.199219 964.648438 890.390625 984.03125 893.59375 1003.410156 C 894.011719 1005.925781 894.136719 1008.488281 894.523438 1011.015625 C 894.898438 1013.445313 893.613281 1014.210938 891.539063 1014.21875 C 888.390625 1014.230469 885.246094 1014.164063 882.101563 1014.128906 C 870.109375 1013.980469 858.121094 1013.832031 846.128906 1013.6875 C 842.171875 1013.640625 841.726563 1013.402344 840.988281 1009.265625 C 839.109375 998.726563 837.359375 988.164063 835.554688 977.609375 C 829.269531 940.824219 823.03125 904.027344 816.652344 867.257813 C 815.359375 859.8125 813.535156 852.464844 811.921875 845.074219 C 811.75 844.285156 811.335938 843.550781 811.035156 842.785156 C 810.738281 842.753906 810.441406 842.714844 810.144531 842.679688 C 809.367188 844.5 808.335938 846.253906 807.851563 848.148438 C 794.097656 901.792969 780.378906 955.449219 766.746094 1009.128906 C 766.035156 1011.929688 764.8125 1013.550781 761.890625 1013.605469 C 757.640625 1013.695313 756.367188 1012.769531 755.382813 1008.855469 C 748.890625 983.050781 742.480469 957.222656 735.902344 931.4375 C 728.695313 903.179688 721.339844 874.960938 714.027344 846.726563 C 713.722656 845.546875 713.191406 844.421875 712.765625 843.273438 C 712.375 843.226563 711.988281 843.175781 711.597656 843.128906 "/>
<path style=" stroke:none;fill-rule:evenodd;fill:rgb(75.698853%,14.898682%,20.799255%);fill-opacity:1;" d="M 1097.660156 845.996094 C 1096.761719 848.226563 1095.609375 850.382813 1095.011719 852.6875 C 1085.941406 887.660156 1076.929688 922.648438 1067.910156 957.640625 C 1063.449219 974.945313 1058.949219 992.238281 1054.628906 1009.578125 C 1053.878906 1012.601563 1052.378906 1013.945313 1049.371094 1013.929688 C 1043.839844 1013.890625 1043.179688 1013.492188 1042.109375 1009.117188 C 1032.628906 970.496094 1023.210938 931.863281 1013.660156 893.261719 C 1009.648438 877.058594 1005.378906 860.921875 1001.179688 844.765625 C 1000.820313 843.371094 1000.121094 842.070313 999.578125 840.726563 L 998.609375 840.847656 C 998.308594 841.808594 997.894531 842.753906 997.71875 843.738281 C 992.792969 870.988281 987.757813 898.214844 983.023438 925.492188 C 978.09375 953.941406 973.464844 982.441406 968.679688 1010.914063 C 968.140625 1014.105469 967.160156 1014.640625 964.027344 1014.222656 C 962.53125 1014.019531 960.976563 1014.347656 959.445313 1014.34375 C 946.277344 1014.320313 933.105469 1014.289063 919.933594 1014.238281 C 916.636719 1014.226563 916.3125 1013.859375 916.847656 1010.667969 C 924.082031 967.472656 931.320313 924.273438 938.574219 881.082031 C 945.519531 839.726563 952.484375 798.378906 959.445313 757.027344 C 964.765625 725.460938 970.089844 693.890625 975.390625 662.320313 C 975.808594 659.828125 976.96875 658.480469 979.683594 658.5 C 986.757813 658.558594 993.832031 658.539063 1000.898438 658.421875 C 1003.710938 658.378906 1004.828125 659.730469 1005.46875 662.308594 C 1018.78125 715.859375 1032.148438 769.398438 1045.519531 822.9375 C 1046.140625 825.429688 1046.441406 828.152344 1049.46875 830.039063 C 1050.378906 827.648438 1051.398438 825.558594 1051.96875 823.351563 C 1065.761719 769.921875 1079.519531 716.488281 1093.179688 663.03125 C 1093.980469 659.898438 1095.28125 658.570313 1098.570313 658.660156 C 1105.539063 658.859375 1112.519531 658.820313 1119.5 658.75 C 1122.101563 658.71875 1123.53125 659.800781 1123.980469 662.308594 C 1125.339844 669.839844 1126.820313 677.351563 1128.058594 684.910156 C 1133.691406 719.308594 1139.261719 753.726563 1144.859375 788.136719 C 1150.269531 821.386719 1155.679688 854.632813 1161.101563 887.878906 C 1166.488281 920.929688 1171.898438 953.976563 1177.300781 987.023438 C 1178.558594 994.683594 1179.859375 1002.328125 1181.089844 1009.988281 C 1181.71875 1013.949219 1180.859375 1014.941406 1176.761719 1014.914063 C 1161.921875 1014.824219 1147.078125 1014.621094 1132.230469 1014.613281 C 1129.359375 1014.613281 1128.039063 1013.277344 1127.601563 1010.769531 C 1126.160156 1002.550781 1124.78125 994.320313 1123.390625 986.09375 C 1115.851563 941.554688 1108.320313 897.011719 1100.75 852.476563 C 1100.378906 850.316406 1099.550781 848.230469 1098.941406 846.109375 C 1098.511719 846.070313 1098.089844 846.035156 1097.660156 845.996094 "/>
<path style=" stroke:none;fill-rule:evenodd;fill:rgb(75.698853%,14.898682%,20.799255%);fill-opacity:1;" d="M 376.847656 825.976563 C 376.851563 826.164063 376.859375 826.359375 376.867188 826.550781 C 384.59375 825.925781 392.5625 826.308594 399.996094 824.492188 C 426.644531 817.980469 443.945313 797.085938 445.390625 769.605469 C 446.25 753.183594 441.605469 738.265625 429.332031 726.519531 C 419.554688 717.171875 407.746094 711.710938 394.628906 708.75 C 382.375 705.980469 369.988281 706.898438 357.628906 707.101563 C 354.007813 707.148438 352.484375 709.21875 352.511719 713.230469 C 352.734375 749.011719 352.976563 784.789063 353.230469 820.566406 C 353.257813 824.410156 354.683594 825.898438 358.566406 825.953125 C 364.65625 826.035156 370.753906 825.976563 376.847656 825.976563 M 298.9375 835.835938 C 298.9375 778.042969 298.9375 720.25 298.9375 662.460938 C 298.941406 658.761719 299.382813 658.230469 303.21875 658.230469 C 334.957031 658.199219 366.746094 657.140625 398.421875 658.550781 C 424.136719 659.699219 447.121094 669.691406 465.582031 688.371094 C 470.679688 693.53125 475.589844 698.949219 480.019531 704.691406 C 495.355469 724.558594 500.109375 747.703125 499.414063 772.128906 C 498.03125 820.902344 461.40625 863.246094 413.132813 872.074219 C 405.347656 873.496094 397.34375 873.898438 389.417969 874.3125 C 379.214844 874.84375 368.988281 874.914063 358.769531 875.175781 C 354.253906 875.289063 353.089844 876.429688 353.097656 881.039063 C 353.136719 901.871094 353.265625 922.710938 353.246094 943.546875 C 353.226563 965.5625 353.050781 987.574219 353.023438 1009.589844 C 353.019531 1012.332031 351.84375 1013.171875 349.28125 1013.164063 C 333.949219 1013.109375 318.621094 1013.078125 303.292969 1013.203125 C 300.578125 1013.226563 300.015625 1012.183594 299.976563 1009.777344 C 299.644531 988.453125 299.113281 967.132813 298.855469 945.808594 C 298.632813 927.433594 298.660156 909.054688 298.628906 890.675781 C 298.59375 872.394531 298.621094 854.113281 298.621094 835.835938 "/>
<path style=" stroke:none;fill-rule:evenodd;fill:rgb(75.698853%,14.898682%,20.799255%);fill-opacity:1;" d="M 1323.628906 652.421875 C 1345.511719 652.359375 1364.910156 659.929688 1383.300781 670.769531 C 1388.109375 673.621094 1392.710938 676.828125 1397.46875 679.78125 C 1399.640625 681.121094 1399.78125 682.601563 1398.53125 684.679688 C 1391.238281 696.808594 1383.988281 708.949219 1376.769531 721.121094 C 1375.410156 723.429688 1373.738281 723.179688 1371.789063 722.128906 C 1364.109375 717.96875 1356.640625 713.300781 1348.660156 709.800781 C 1341.070313 706.480469 1333.109375 703.371094 1325.011719 701.96875 C 1305.550781 698.589844 1287.839844 715.140625 1288.949219 735.03125 C 1289.511719 745.164063 1293.191406 753.949219 1300.851563 761.121094 C 1323.871094 782.695313 1347.121094 804.046875 1369.421875 826.34375 C 1389.351563 846.269531 1403.070313 870.265625 1410.179688 897.691406 C 1415.210938 917.0625 1415.171875 936.84375 1406.871094 954.925781 C 1390.671875 990.21875 1363.589844 1012.761719 1324.210938 1018.441406 C 1302.230469 1021.613281 1281.429688 1016.859375 1262.21875 1006.414063 C 1249.488281 999.492188 1237.660156 990.898438 1225.539063 982.878906 C 1221.421875 980.152344 1221.390625 978.53125 1224.371094 974.527344 C 1231.179688 965.386719 1237.980469 956.238281 1244.800781 947.097656 C 1247.898438 942.929688 1248.5 942.898438 1252.878906 945.695313 C 1262.648438 951.941406 1272.269531 958.449219 1282.308594 964.214844 C 1293.960938 970.898438 1306.820313 973.097656 1319.910156 970.359375 C 1335 967.214844 1345.710938 957.429688 1352.640625 944.132813 C 1364.511719 921.363281 1359.71875 900.007813 1344.730469 880.539063 C 1329.640625 860.9375 1312.039063 843.675781 1293.429688 827.367188 C 1282.070313 817.402344 1270.71875 807.238281 1260.628906 796.027344 C 1246.199219 780.007813 1236.960938 761.113281 1235.140625 739.226563 C 1233.839844 723.449219 1239.191406 709.421875 1247.269531 696.300781 C 1260.398438 674.949219 1279.28125 661.160156 1303.519531 655.039063 C 1310.03125 653.398438 1316.921875 653.25 1323.628906 652.421875 "/>
<path style=" stroke:none;fill-rule:evenodd;fill:rgb(75.698853%,14.898682%,20.799255%);fill-opacity:1;" d="M 537.125 658.269531 L 588.878906 658.269531 C 588.972656 659.488281 589.136719 660.71875 589.148438 661.960938 C 589.503906 694.578125 590.082031 727.199219 590.132813 759.824219 C 590.261719 842.871094 590.15625 925.914063 590.140625 1008.960938 C 590.140625 1013.457031 590.132813 1013.601563 585.535156 1013.597656 C 570.800781 1013.585938 556.066406 1013.414063 541.328125 1013.425781 C 538.265625 1013.429688 537.539063 1012.046875 537.539063 1009.28125 C 537.566406 986.28125 537.480469 963.285156 537.453125 940.289063 C 537.339844 847.808594 537.234375 755.332031 537.125 662.851563 C 537.125 661.488281 537.125 660.121094 537.125 658.269531 "/>
<path style=" stroke:none;fill-rule:evenodd;fill:rgb(75.698853%,14.898682%,20.799255%);fill-opacity:1;" d="M 1199.890625 569.898438 C 1229.359375 570.828125 1260.191406 598.210938 1250.640625 638.550781 C 1245.769531 659.128906 1234.589844 675.710938 1220.238281 690.511719 C 1206.820313 704.328125 1190.988281 714.871094 1173.691406 723.21875 C 1172.230469 723.929688 1169.988281 723.980469 1168.46875 723.410156 C 1165.328125 722.21875 1165.179688 719.828125 1167.820313 717.730469 C 1177.949219 709.679688 1187.140625 700.710938 1194.53125 690.03125 C 1199.210938 683.25 1202.859375 676 1204.140625 667.769531 C 1204.871094 663.089844 1203.859375 662.050781 1199.171875 661.609375 C 1188.320313 660.609375 1178.070313 657.640625 1169.261719 651.058594 C 1157.191406 642.039063 1151.910156 629.589844 1152.011719 614.71875 C 1152.160156 590.359375 1170.460938 573.160156 1192.25 569.949219 C 1194.75 569.589844 1197.339844 569.898438 1199.890625 569.898438 "/>
<path style=" stroke:none;fill-rule:evenodd;fill:rgb(75.698853%,14.898682%,20.799255%);fill-opacity:1;" d="M 1404.148438 657.699219 C 1406.679688 657.488281 1409.390625 657.800781 1411.710938 656.980469 C 1421.378906 653.601563 1426.890625 644.148438 1426.011719 633.878906 C 1424.699219 618.449219 1406.410156 605.71875 1390.230469 617.261719 C 1385.730469 620.46875 1382.28125 624.601563 1381.089844 630.179688 C 1377.878906 645.308594 1388.480469 657.859375 1404.148438 657.699219 M 1404.839844 609.28125 C 1415.148438 609.21875 1426.378906 618.441406 1429.390625 629.558594 C 1432.800781 642.179688 1426.921875 654.679688 1414.710938 659.46875 C 1411.089844 660.890625 1406.738281 660.320313 1402.839844 661.171875 C 1395.710938 662.738281 1390.378906 659.421875 1385.53125 655.101563 C 1380.378906 650.488281 1377.148438 644.691406 1377.050781 637.578125 C 1376.828125 622.898438 1383.609375 614.210938 1398.179688 610.429688 C 1400.351563 609.871094 1402.609375 609.660156 1404.839844 609.28125 "/>
<path style=" stroke:none;fill-rule:evenodd;fill:rgb(13.299561%,11.799622%,12.199402%);fill-opacity:1;" d="M 858.808594 615.160156 C 859.71875 616.449219 860.828125 617.371094 860.679688 617.96875 C 860.464844 618.851563 859.347656 619.511719 858.613281 620.261719 C 857.886719 619.460938 856.773438 618.75 856.570313 617.828125 C 856.449219 617.269531 857.71875 616.398438 858.808594 615.160156 "/>
<path style=" stroke:none;fill-rule:evenodd;fill:rgb(100%,100%,100%);fill-opacity:1;" d="M 833.171875 606.109375 C 833.273438 604.050781 833.453125 602 833.460938 599.949219 C 833.46875 597.71875 834.589844 596.789063 836.691406 596.640625 C 841.382813 596.320313 844.730469 599.820313 845.378906 605.78125 C 845.851563 610.148438 842.917969 613.949219 838.660156 614.488281 C 837.980469 614.570313 837.304688 614.699219 836.628906 614.800781 C 833.894531 615.199219 833.125 614.53125 833.089844 611.691406 C 833.066406 609.828125 833.085938 607.96875 833.085938 606.109375 C 833.113281 606.109375 833.140625 606.109375 833.171875 606.109375 "/>
<path style=" stroke:none;fill-rule:evenodd;fill:rgb(75.698853%,14.898682%,20.799255%);fill-opacity:1;" d="M 1403.191406 625.019531 C 1399.960938 624.949219 1398.929688 625.851563 1398.878906 628.769531 C 1398.820313 631.890625 1399.960938 633.011719 1403.339844 633.140625 C 1406.578125 633.28125 1409.589844 631.050781 1409.53125 628.570313 C 1409.480469 626.589844 1406.820313 625.101563 1403.191406 625.019531 M 1392.300781 635.320313 C 1392.300781 631 1392.339844 626.679688 1392.28125 622.359375 C 1392.25 620.488281 1393.148438 619.511719 1394.898438 619.578125 C 1399.898438 619.761719 1404.980469 619.578125 1409.859375 620.46875 C 1416.890625 621.738281 1418.839844 627.601563 1414.949219 633.640625 C 1414.179688 634.839844 1414.070313 636.710938 1414.238281 638.210938 C 1414.628906 641.699219 1415.539063 645.128906 1415.910156 648.628906 C 1416.019531 649.691406 1415.070313 650.871094 1414.609375 651.988281 C 1413.128906 651.300781 1411.058594 650.980469 1410.300781 649.808594 C 1409.308594 648.28125 1409.238281 646.101563 1408.941406 644.171875 C 1408.191406 639.371094 1404.570313 637.371094 1400.25 639.648438 C 1399.449219 640.070313 1398.910156 641.421875 1398.71875 642.429688 C 1398.308594 644.738281 1398.429688 647.171875 1397.820313 649.410156 C 1397.578125 650.328125 1396.070313 651.441406 1395.058594 651.53125 C 1393.300781 651.691406 1391.839844 650.789063 1391.851563 648.578125 C 1391.878906 644.160156 1391.859375 639.738281 1391.859375 635.320313 "/>
<path style=" stroke:none;fill-rule:evenodd;fill:rgb(100%,100%,100%);fill-opacity:1;" d="M 1403.191406 625.019531 C 1406.820313 625.101563 1409.480469 626.589844 1409.53125 628.570313 C 1409.589844 631.050781 1406.578125 633.28125 1403.339844 633.140625 C 1399.960938 633.011719 1398.820313 631.890625 1398.878906 628.769531 C 1398.929688 625.851563 1399.960938 624.949219 1403.191406 625.019531 "/>
<path style=" stroke:none;fill-rule:evenodd;fill:rgb(69.410706%,64.704895%,28.627014%);fill-opacity:1;" d="M 846.992188 289.789063 C 846.109375 289.398438 844.898438 287.929688 845.085938 287.339844 C 845.429688 286.210938 846.59375 284.648438 847.5625 284.53125 C 852.003906 284.019531 856.507813 283.699219 860.972656 283.828125 C 863.054688 283.890625 865.660156 284.558594 866.050781 287.351563 C 866.320313 289.261719 863.808594 290.820313 860.632813 291.121094 C 858.589844 291.308594 856.558594 291.589844 854.523438 291.828125 C 854.464844 291.980469 849.351563 290.820313 846.992188 289.789063 "/>
<path style=" stroke:none;fill-rule:evenodd;fill:rgb(69.410706%,64.704895%,28.627014%);fill-opacity:1;" d="M 868.640625 272.199219 C 864.65625 272.179688 861.867188 269.511719 862.078125 266.308594 C 862.183594 264.75 863.070313 263.890625 864.316406 264.710938 C 866.539063 266.179688 868.875 267.761719 870.441406 269.839844 C 871.8125 271.671875 870.027344 272.261719 868.640625 272.199219 "/>
<path style=" stroke:none;fill-rule:evenodd;fill:rgb(69.410706%,64.704895%,28.627014%);fill-opacity:1;" d="M 840.539063 271.820313 C 841.066406 268.550781 844.121094 264.96875 846.878906 264.328125 C 848.789063 263.890625 849.640625 264.730469 849.511719 266.660156 C 849.238281 270.699219 844.816406 273.328125 840.539063 271.820313 "/>
<path style=" stroke:none;fill-rule:evenodd;fill:rgb(69.410706%,64.704895%,28.627014%);fill-opacity:1;" d="M 912.191406 596.601563 C 912.203125 596.140625 912.214844 595.679688 912.222656 595.21875 C 910.96875 594.300781 909.816406 592.820313 908.441406 592.570313 C 906.175781 592.148438 905.472656 594.238281 905.386719 596.019531 C 905.289063 598.019531 906.84375 599.230469 908.628906 598.949219 C 909.90625 598.75 911.011719 597.421875 912.191406 596.601563 M 907.035156 608.128906 C 907.324219 610.308594 908.339844 611.96875 910.671875 612.050781 C 912.992188 612.128906 913.988281 610.441406 914.019531 608.378906 C 914.054688 606.03125 912.671875 604.898438 910.292969 604.808594 C 907.890625 604.71875 907.304688 606.21875 907.035156 608.128906 M 910.027344 616.191406 C 904.546875 616.261719 900.914063 611.609375 902.464844 606.949219 C 903.421875 604.058594 903.8125 601.699219 901.53125 599.101563 C 899.832031 597.148438 899.933594 594.398438 901.421875 592.179688 C 903.226563 589.488281 905.980469 588.109375 909.21875 588.238281 C 914.914063 588.46875 917.578125 592.648438 915.996094 598.28125 C 915.652344 599.511719 915.621094 601.371094 916.320313 602.25 C 918.769531 605.308594 920.222656 608.320313 918.257813 612.199219 C 916.347656 615.960938 912.683594 615.628906 910.027344 616.191406 "/>
<path style=" stroke:none;fill-rule:evenodd;fill:rgb(69.410706%,64.704895%,28.627014%);fill-opacity:1;" d="M 935.632813 592.828125 C 935.0625 595.410156 934.417969 597.699219 934.113281 600.03125 C 934.019531 600.761719 935.019531 602.339844 935.179688 602.300781 C 936.417969 601.949219 938.007813 601.609375 938.65625 600.691406 C 939.8125 599.050781 938.152344 594.710938 935.632813 592.828125 M 945.9375 602.578125 C 945.644531 604.429688 945.46875 606.089844 945.09375 607.699219 C 944.714844 609.351563 942.730469 609.929688 941.761719 608.488281 C 939.925781 605.78125 937.554688 605.878906 934.785156 606.179688 C 930.09375 606.699219 929.292969 605.671875 930.371094 601.128906 C 931.574219 596.070313 932.832031 591.03125 933.984375 585.949219 C 934.382813 584.191406 935.199219 583.058594 937.117188 583.109375 C 939.050781 583.160156 939.648438 584.390625 940.0625 586.140625 C 941.257813 591.148438 941.695313 596.480469 945.5625 600.511719 C 946.003906 600.96875 945.847656 602 945.9375 602.578125 "/>
<path style=" stroke:none;fill-rule:evenodd;fill:rgb(69.410706%,64.704895%,28.627014%);fill-opacity:1;" d="M 1005.359375 452.191406 C 1007.761719 452.199219 1009.941406 449.949219 1009.941406 447.519531 C 1009.949219 445.621094 1008.851563 444.609375 1007.03125 444.5 C 1004.710938 444.371094 1002.910156 446.511719 1002.820313 449.238281 C 1002.761719 451.179688 1003.5 452.261719 1005.359375 452.191406 M 702.84375 445.03125 C 702.410156 445.679688 701.316406 446.671875 701.078125 447.839844 C 700.667969 449.820313 703.328125 452.679688 705.335938 452.671875 C 707.300781 452.660156 708.429688 451.5 708.546875 449.570313 C 708.691406 447.191406 706.359375 445.050781 702.84375 445.03125 M 985.847656 476.359375 C 981.523438 477.589844 977.476563 478.738281 973.429688 479.890625 C 973.453125 480.261719 973.476563 480.640625 973.503906 481.011719 C 975.179688 481.710938 976.820313 482.519531 978.546875 483.078125 C 983.070313 484.539063 986.1875 481.921875 985.847656 476.359375 M 725.101563 476.640625 C 724.769531 476.960938 724.4375 477.289063 724.109375 477.609375 C 725.5625 479.648438 726.671875 482.148438 728.570313 483.601563 C 730.289063 484.910156 736.183594 482.328125 737.722656 480.03125 C 733.441406 478.878906 729.273438 477.761719 725.101563 476.640625 M 861.679688 422.941406 C 861.652344 419.390625 859.007813 417.140625 854.980469 417.21875 C 851.28125 417.289063 848.925781 419.519531 848.925781 422.929688 C 848.925781 426.679688 851.6875 429.359375 855.46875 429.28125 C 859.1875 429.210938 861.710938 426.628906 861.679688 422.941406 M 769.492188 470.808594 C 777.007813 470.21875 784.46875 470.039063 791.332031 466.308594 C 788.867188 464.089844 786.460938 462.230469 783.792969 460.878906 C 782.65625 460.300781 780.769531 460.308594 779.589844 460.851563 C 775.113281 462.910156 772.570313 467.058594 769.492188 470.808594 M 941.304688 471.539063 C 941.523438 471.179688 941.742188 470.820313 941.960938 470.460938 C 938.371094 467.089844 934.785156 463.710938 931.179688 460.351563 C 930.992188 460.179688 930.636719 460.148438 930.347656 460.109375 C 927.484375 459.699219 920.710938 463.769531 919.269531 466.929688 C 926.519531 469.140625 933.777344 471.019531 941.304688 471.539063 M 782.714844 444.410156 C 784.640625 443.621094 785.570313 441.761719 785.242188 439.550781 C 784.929688 437.398438 783.488281 436.03125 781.507813 435.96875 C 778.121094 435.871094 774.667969 435.929688 771.347656 436.511719 C 768.296875 437.039063 766.597656 439.898438 767.003906 442.601563 C 767.359375 444.980469 769.503906 446.421875 772.78125 446.488281 C 773.175781 446.5 779.960938 445.550781 782.714844 444.410156 M 940.527344 445.898438 C 944.589844 444.519531 945.363281 440.488281 942.191406 437.640625 C 939.382813 435.109375 930.796875 434.640625 927.710938 436.839844 C 924.683594 439 924.898438 443.21875 928.296875 444.660156 C 930.773438 445.710938 939.164063 446.359375 940.527344 445.898438 M 755.488281 509.160156 C 755.410156 504.230469 752.875 501.230469 749.914063 501.941406 C 746.59375 502.730469 743.363281 503.960938 740.171875 505.191406 C 737.859375 506.078125 737.621094 507.980469 738.519531 510.070313 C 739.425781 512.191406 739.472656 515.488281 742.953125 514.820313 C 746.476563 514.140625 749.945313 512.988281 753.285156 511.671875 C 754.4375 511.210938 755.128906 509.601563 755.488281 509.160156 M 966.585938 515.410156 C 970.949219 515.578125 972.253906 512.410156 972.464844 507.910156 C 972.507813 506.898438 971.371094 505.230469 970.414063 504.890625 C 967.109375 503.710938 963.660156 502.921875 960.238281 502.089844 C 957.953125 501.539063 956.675781 502.960938 956.054688 504.859375 C 955.308594 507.160156 954.085938 509.949219 956.863281 511.488281 C 959.894531 513.171875 963.324219 514.140625 966.585938 515.410156 M 841.5 462.210938 C 845.945313 463.53125 866.652344 463.261719 868.777344 461.878906 C 864.734375 458.101563 860.964844 454.128906 855.808594 451.988281 C 855.066406 451.679688 853.710938 452.121094 852.96875 452.671875 C 849.726563 455.050781 846.589844 457.578125 843.449219 460.101563 C 842.816406 460.609375 842.328125 461.300781 841.5 462.210938 M 843.558594 330.199219 C 843.847656 330.128906 844.136719 330.058594 844.429688 329.980469 C 845.8125 326.691406 847.363281 323.460938 848.472656 320.078125 C 848.804688 319.078125 847.9375 317.660156 847.546875 316.449219 C 846.910156 314.46875 845.777344 312.539063 845.644531 310.539063 C 845.476563 307.941406 846.082031 305.289063 846.355469 302.660156 C 846.648438 299.828125 844.640625 298.519531 842.566406 297.78125 C 840.070313 296.890625 838.28125 298.339844 838.601563 300.601563 C 839.691406 308.25 840.789063 315.910156 841.984375 323.550781 C 842.335938 325.789063 843.023438 327.988281 843.558594 330.199219 M 867.007813 330.878906 C 867.582031 329.019531 868.011719 328.039063 868.175781 327.03125 C 869.601563 318.128906 871.023438 309.238281 872.355469 300.328125 C 872.765625 297.589844 870.789063 296.320313 868.175781 297.480469 C 864.6875 299.019531 863.144531 302.328125 864.871094 306.03125 C 866.664063 309.890625 866.167969 312.988281 863.316406 315.941406 C 861.617188 317.699219 861.902344 319.589844 862.839844 321.640625 C 863.839844 323.828125 864.609375 326.128906 865.523438 328.359375 C 865.765625 328.949219 866.171875 329.46875 867.007813 330.878906 M 840.269531 278.300781 C 851.578125 277.351563 856.527344 273.699219 854.082031 262.960938 C 854.015625 262.679688 854.027344 262.378906 853.996094 262.078125 C 853.582031 258.308594 850.390625 256.210938 847.101563 258.078125 C 841.605469 261.191406 836.570313 264.851563 835.210938 271.761719 C 834.238281 276.691406 835.257813 278.210938 840.269531 278.300781 M 856.882813 264.121094 C 856.839844 273.648438 859.390625 276.699219 868.570313 278.328125 C 869.054688 278.421875 869.542969 278.46875 870.023438 278.558594 C 874.746094 279.441406 877.398438 277.058594 876.53125 272.378906 C 875.269531 265.578125 871.046875 260.988281 864.910156 258.148438 C 860.222656 255.980469 858.125 257.199219 857.15625 262.371094 C 857.027344 263.039063 856.941406 263.71875 856.882813 264.121094 M 787.714844 506.03125 C 791.65625 505.800781 796.1875 505.679688 799.9375 502.558594 C 802.230469 500.648438 802.957031 498.269531 802.308594 495.460938 C 801.628906 492.5 799.699219 490.449219 796.769531 490.019531 C 792.152344 489.328125 787.558594 489.660156 783.355469 492.089844 C 780.292969 493.871094 778.464844 498.089844 779.335938 501.410156 C 780.1875 504.671875 782.746094 506.179688 787.714844 506.03125 M 914.539063 489.910156 C 910.667969 490.78125 908.492188 493.230469 908.152344 497 C 907.859375 500.210938 909.351563 502.921875 913.078125 504.171875 C 916.5625 505.339844 920.289063 506.019531 923.960938 506.351563 C 927.320313 506.648438 930.664063 504.21875 931.480469 501.671875 C 932.40625 498.78125 931.074219 494.289063 928.28125 492.851563 C 925.101563 491.21875 915.6875 489.648438 914.539063 489.910156 M 854.785156 298.230469 C 860.289063 298.601563 865.363281 297.949219 869.8125 294.671875 C 872.488281 292.691406 873.804688 290.199219 873.363281 286.800781 C 872.898438 283.25 870.914063 280.648438 867.761719 279.460938 C 859.441406 276.328125 851.039063 276.339844 842.847656 280.078125 C 836.671875 282.890625 835.894531 290.878906 841.316406 294.949219 C 845.394531 298 850 298.910156 854.785156 298.230469 M 855.257813 497.191406 L 855.257813 496.761719 C 861.046875 496.761719 866.839844 496.871094 872.621094 496.71875 C 875.714844 496.640625 877.433594 494.648438 877.558594 491.628906 C 877.734375 487.328125 876.019531 485.28125 871.46875 485.210938 C 860.691406 485.058594 849.910156 485.078125 839.128906 485.148438 C 834.796875 485.179688 832.917969 487.25 833.066406 491.28125 C 833.199219 494.960938 835.65625 497.179688 839.648438 497.191406 C 844.851563 497.199219 850.054688 497.191406 855.257813 497.191406 M 866.160156 380.449219 C 866.425781 382.191406 866.589844 383.960938 866.988281 385.671875 C 867.480469 387.78125 868.371094 389.738281 871.042969 389.449219 C 873.550781 389.171875 874.238281 387.25 874.578125 385.070313 C 879.527344 353.5 886.566406 322.441406 896.992188 292.191406 C 897.503906 290.710938 898.171875 289.191406 898.222656 287.671875 C 898.257813 286.519531 897.703125 284.628906 896.917969 284.320313 C 895.347656 283.699219 893.96875 284.558594 893.546875 286.539063 C 893.050781 288.839844 892.335938 291.089844 891.726563 293.359375 C 884.734375 319.421875 877.320313 345.390625 873.15625 372.121094 C 872.9375 373.539063 871.703125 374.800781 870.941406 376.140625 C 870.550781 374.769531 869.820313 373.398438 869.820313 372.03125 C 869.828125 350.480469 874.730469 329.578125 878.488281 308.539063 C 879.914063 300.53125 881.988281 292.640625 883.769531 284.691406 C 883.835938 284.410156 883.902344 284.121094 883.976563 283.828125 C 884.421875 282.070313 884.003906 280.46875 882.179688 280.070313 C 880.21875 279.640625 879.882813 281.359375 879.535156 282.851563 C 872.09375 314.96875 867.210938 347.429688 866.160156 380.449219 M 844.746094 379.460938 C 843.558594 365.261719 842.835938 350.121094 840.894531 335.148438 C 838.707031 318.238281 835.464844 301.460938 832.574219 284.648438 C 832.214844 282.558594 831.300781 279.730469 828.777344 280.191406 C 825.796875 280.738281 826.972656 283.660156 827.371094 285.648438 C 831.578125 306.710938 837.027344 327.539063 839.242188 348.96875 C 840.09375 357.171875 840.679688 365.398438 841.246094 373.621094 C 841.304688 374.480469 840.410156 375.398438 839.960938 376.289063 C 839.355469 375.5 838.410156 374.800781 838.214844 373.921875 C 837.550781 370.960938 837.328125 367.890625 836.632813 364.941406 C 830.605469 339.351563 824.523438 313.78125 818.410156 288.210938 C 818.144531 287.101563 817.621094 285.921875 816.863281 285.101563 C 816.335938 284.519531 815.019531 284.089844 814.378906 284.359375 C 813.710938 284.648438 813.148438 285.820313 813.058594 286.660156 C 812.960938 287.570313 813.421875 288.558594 813.710938 289.5 C 823.507813 321.121094 832.195313 353 836.105469 386 C 836.347656 388.03125 837.203125 389.621094 839.484375 389.800781 C 841.867188 389.980469 843.167969 388.398438 843.742188 386.460938 C 844.3125 384.519531 844.351563 382.421875 844.746094 379.460938 M 808.695313 326.21875 C 806.292969 327.058594 802.257813 328.210938 798.421875 329.839844 C 785.601563 335.300781 775.050781 344.171875 764.464844 352.929688 C 762.082031 354.898438 760.046875 357.398438 758.257813 359.941406 C 756.238281 362.808594 757.339844 365.058594 760.898438 365.300781 C 763.601563 365.488281 766.382813 365.140625 769.078125 364.710938 C 777.242188 363.398438 784.535156 359.820313 791.722656 355.898438 C 799.308594 351.761719 807.078125 347.960938 815.644531 346.238281 C 819.046875 345.558594 820.449219 344.550781 820.226563 341.078125 C 820.03125 338.109375 819.070313 335.160156 818.175781 332.28125 C 816.609375 327.230469 815.796875 326.699219 808.695313 326.21875 M 946.921875 365.230469 C 948.378906 365.160156 949.679688 365.25 950.917969 365.011719 C 953.886719 364.429688 954.792969 361.980469 952.921875 359.628906 C 951.699219 358.101563 950.382813 356.640625 949.03125 355.210938 C 939.308594 344.960938 927.292969 337.820313 915.324219 330.679688 C 910.679688 327.898438 905.433594 326.488281 899.894531 326.289063 C 896.800781 326.171875 894.660156 327.390625 893.609375 330.101563 C 892.335938 333.378906 891.246094 336.761719 890.460938 340.191406 C 889.832031 342.910156 891.46875 345.609375 893.769531 345.96875 C 903.757813 347.519531 912.542969 352.039063 921.285156 356.769531 C 929.359375 361.140625 937.761719 364.628906 946.921875 365.230469 M 701.527344 399.261719 C 700.671875 399.921875 698.734375 400.679688 698.355469 401.921875 C 698.007813 403.058594 699.019531 405.019531 700.011719 406.070313 C 701.378906 407.5 702.832031 408.519531 702.804688 410.878906 C 702.796875 411.671875 704.410156 412.988281 705.445313 413.179688 C 708.261719 413.699219 710 412.121094 711.222656 408.578125 C 721.375 379.261719 737.554688 354.03125 761.75 334.261719 C 775.667969 322.890625 790.234375 312.609375 807.789063 307.480469 C 809.007813 307.121094 810.195313 306.601563 811.328125 306.03125 C 813.191406 305.078125 813.253906 302.660156 811.425781 301.660156 C 810.882813 301.371094 810.109375 301.371094 809.457031 301.429688 C 804.535156 301.871094 799.699219 303.878906 794.765625 300.621094 C 792.582031 299.171875 790.914063 301.410156 790.578125 303.679688 C 790 307.601563 787.257813 309.480469 783.988281 310.351563 C 781.8125 310.921875 779.316406 310.5 776.988281 310.269531 C 773.796875 309.941406 772.238281 310.988281 771.921875 314.019531 C 771.414063 318.921875 765.917969 322.511719 761.160156 321.058594 C 757.929688 320.070313 755.519531 322.121094 755.878906 325.449219 C 755.996094 326.570313 756.1875 328.121094 755.585938 328.808594 C 753.679688 331.011719 751.589844 333.171875 749.199219 334.789063 C 748.1875 335.46875 746.230469 334.890625 744.726563 334.699219 C 741.472656 334.269531 739.542969 336.109375 740.242188 339.328125 C 740.820313 341.988281 740.144531 344.171875 738.371094 346.109375 C 737.378906 347.199219 736.53125 348.5 735.351563 349.308594 C 734.355469 350 732.90625 350.601563 731.773438 350.429688 C 727.96875 349.871094 726.167969 351.648438 727.136719 355.378906 C 728.109375 359.140625 724.730469 365.101563 720.789063 365.769531 C 717.441406 366.351563 716.578125 368.140625 716.800781 371.089844 C 716.875 372.070313 716.882813 373.058594 716.824219 374.039063 C 716.621094 377.53125 713.902344 381.179688 711.296875 381.5 C 707.472656 381.980469 706.617188 383.75 708.113281 387.339844 C 708.652344 388.640625 708.746094 390.308594 708.496094 391.710938 C 708.171875 393.511719 707.289063 395.21875 706.660156 396.980469 C 705.945313 398.980469 704.753906 400.179688 701.527344 399.261719 M 904.28125 302.03125 C 904.277344 302.121094 904.273438 302.210938 904.269531 302.300781 C 902.894531 302.300781 901.496094 302.140625 900.15625 302.359375 C 899.445313 302.480469 898.363281 303.199219 898.300781 303.738281 C 898.210938 304.53125 898.683594 305.640625 899.296875 306.179688 C 899.972656 306.789063 901.074219 306.941406 902 307.261719 C 918.878906 313.089844 934.460938 321.429688 948.074219 332.929688 C 971.695313 352.890625 989.746094 376.871094 999.179688 406.761719 C 999.71875 408.460938 1000.75 410.191406 1002.019531 411.449219 C 1004.300781 413.71875 1006.230469 413.238281 1007.828125 410.488281 C 1008.820313 408.820313 1009.671875 406.921875 1011.070313 405.671875 C 1012.460938 404.441406 1013.441406 403.460938 1012.898438 401.53125 C 1012.289063 399.351563 1010.53125 399.660156 1008.878906 399.429688 C 1007.609375 399.25 1005.609375 398.949219 1005.289063 398.160156 C 1003.75 394.359375 1000.460938 390.820313 1003.328125 386.109375 C 1004.78125 383.71875 1003.390625 381.46875 1000.570313 381.378906 C 998.324219 381.308594 997.261719 380.089844 996.171875 378.511719 C 994.464844 376.050781 993.65625 373.398438 994.375 370.449219 C 995.003906 367.851563 993.710938 366.589844 991.441406 365.960938 C 986.527344 364.570313 983.398438 359.691406 984.191406 354.589844 C 984.664063 351.558594 983.234375 349.558594 980.492188 350.148438 C 978.109375 350.671875 976.800781 349.699219 975.429688 348.21875 C 974.359375 347.070313 973.316406 345.890625 972.171875 344.820313 C 970.558594 343.308594 970.109375 341.730469 970.945313 339.550781 C 971.882813 337.101563 970.507813 335.070313 967.964844 334.628906 C 966.898438 334.449219 965.820313 334.328125 964.746094 334.238281 C 958.574219 333.769531 955.476563 330.410156 955.484375 324.171875 C 955.488281 321.210938 953.417969 320.070313 950.476563 320.859375 C 948.867188 321.289063 946.953125 321.011719 945.273438 320.628906 C 943.988281 320.328125 942.652344 319.570313 941.714844 318.628906 C 940.710938 317.628906 939.664063 316.25 939.472656 314.921875 C 938.816406 310.308594 937.621094 309.351563 933.320313 310.679688 C 928.097656 312.289063 921.820313 308.679688 920.558594 303.328125 C 919.863281 300.371094 917.460938 299.558594 914.785156 300.921875 C 913.136719 301.761719 911.132813 302.050781 909.253906 302.25 C 907.621094 302.429688 905.941406 302.121094 904.28125 302.03125 M 976.777344 494.441406 C 977.472656 493.820313 978.535156 493.238281 979.035156 492.339844 C 980.441406 489.828125 978.976563 488.699219 976.722656 487.789063 C 957.757813 480.160156 938.140625 475.128906 917.839844 472.78125 C 902.835938 471.039063 887.867188 468.519531 872.8125 467.730469 C 837.222656 465.851563 801.933594 468.671875 767.3125 477.539063 C 756.394531 480.339844 745.683594 483.949219 734.902344 487.269531 C 732.835938 487.910156 730.566406 488.839844 731.304688 491.730469 C 731.929688 494.171875 733.734375 494.601563 737.0625 493.558594 C 743.714844 491.480469 750.339844 489.289063 757.066406 487.46875 C 785.699219 479.730469 814.824219 475.121094 844.492188 474.210938 C 862.792969 473.640625 881.007813 474.898438 899.179688 477.050781 C 924.203125 480 948.820313 484.761719 972.632813 493.199219 C 973.832031 493.621094 975.066406 493.929688 976.777344 494.441406 M 854.9375 558.871094 C 873.464844 558.328125 891.84375 558.019531 910.195313 557.179688 C 919.980469 556.71875 929.789063 555.769531 939.464844 554.25 C 946.195313 553.191406 952.878906 551.21875 959.289063 548.871094 C 966.347656 546.289063 967.34375 539.820313 961.441406 535.230469 C 958.191406 532.691406 954.1875 530.890625 950.261719 529.5 C 939.859375 525.820313 929.007813 524.089844 918.074219 522.679688 C 898.773438 520.191406 879.433594 518.359375 859.960938 518.128906 C 841.566406 517.910156 823.246094 519.019531 804.96875 521.039063 C 789.636719 522.738281 774.292969 524.53125 759.722656 529.890625 C 755.488281 531.441406 751.46875 534 747.886719 536.78125 C 744.191406 539.648438 744.378906 543.921875 748.289063 546.359375 C 752.382813 548.921875 756.832031 551.351563 761.460938 552.550781 C 774.339844 555.878906 787.613281 556.738281 800.863281 557.238281 C 818.929688 557.921875 837.007813 558.339844 854.9375 558.871094 M 836.738281 403.570313 C 837.007813 403.25 837.28125 402.929688 837.550781 402.609375 C 835.1875 399.53125 832.902344 396.378906 830.429688 393.390625 C 828.992188 391.648438 828.984375 390.210938 830.296875 388.390625 C 831.09375 387.28125 831.945313 385.710938 831.773438 384.480469 C 830.640625 376.53125 829.3125 368.601563 827.878906 360.691406 C 827.410156 358.101563 825.835938 356.449219 822.847656 357.121094 C 819.023438 357.96875 814.90625 358.191406 811.433594 359.800781 C 803.347656 363.550781 795.667969 368.171875 787.625 372.03125 C 783.523438 373.988281 779.070313 375.378906 774.640625 376.460938 C 771.046875 377.339844 767.238281 377.28125 763.546875 377.789063 C 757.777344 378.578125 752.203125 379.789063 747.394531 383.53125 C 736.3125 392.140625 730.996094 404.328125 726.308594 416.929688 C 725.777344 418.359375 725.492188 420.078125 725.730469 421.570313 C 726.664063 427.351563 727.558594 433.160156 729.03125 438.820313 C 730.308594 443.71875 731.296875 448.46875 730.402344 453.570313 C 729.441406 459.050781 731.410156 462.261719 736.980469 462.949219 C 746.292969 464.109375 754.757813 461.859375 761.054688 454.269531 C 764.4375 450.179688 764.589844 445.070313 761.683594 440.601563 C 760.0625 438.109375 757.902344 437.671875 755.410156 439.339844 C 754.265625 440.101563 753.128906 440.871094 752 441.660156 C 749.699219 443.25 747.582031 442.71875 746.738281 440.28125 C 745.578125 436.929688 744.480469 433.351563 744.433594 429.859375 C 744.371094 424.839844 745.964844 419.960938 750.382813 417 C 752.464844 415.601563 755.300781 415.191406 757.863281 414.691406 C 760.363281 414.199219 761.367188 413.191406 761.492188 410.449219 C 761.757813 404.699219 763.058594 399.128906 766.949219 394.578125 C 770.992188 389.839844 775.546875 389.75 780.242188 393.859375 C 783.933594 397.078125 785.296875 401.480469 787 405.75 C 788.457031 409.398438 789.328125 409.820313 793.238281 409.03125 C 794.742188 408.71875 796.363281 408.390625 797.839844 408.628906 C 807.800781 410.269531 811.671875 422.378906 808.414063 429.921875 C 807.84375 431.25 805.660156 432.371094 804.070313 432.621094 C 802.117188 432.929688 800 432.261719 797.964844 431.941406 C 794.230469 431.371094 793.125 432.089844 792.191406 435.820313 C 790.40625 442.960938 796.332031 451.339844 804.128906 452.261719 C 808.695313 452.800781 813.371094 453.21875 817.929688 452.839844 C 828.601563 451.960938 837.496094 447.359375 843.933594 438.601563 C 844.8125 437.398438 845.074219 435.75 845.625 434.320313 C 845.382813 434.171875 845.136719 434.03125 844.894531 433.878906 C 843.992188 434.421875 843 434.839844 842.203125 435.5 C 838.671875 438.460938 835.253906 441.558594 831.65625 444.441406 C 830.597656 445.289063 829.105469 445.960938 827.804688 445.96875 C 827.28125 445.980469 826.429688 444.050781 826.25 442.921875 C 825.421875 437.691406 824.34375 432.449219 824.164063 427.179688 C 823.914063 419.738281 824.105469 412.261719 824.628906 404.828125 C 824.96875 400.03125 826.3125 399.558594 830.796875 401.339844 C 832.761719 402.128906 834.757813 402.828125 836.738281 403.570313 M 865.324219 433.371094 C 865.023438 433.679688 864.722656 433.988281 864.421875 434.300781 C 865.144531 435.640625 865.78125 437.03125 866.601563 438.308594 C 875.558594 452.269531 895.363281 455.558594 908.402344 451.449219 C 915.140625 449.328125 917.871094 444.539063 918.730469 438.210938 C 919.445313 432.949219 916.503906 430.398438 911.363281 431.480469 C 910.402344 431.679688 909.449219 431.921875 908.496094 432.148438 C 904.667969 433.070313 902.820313 432.011719 901.730469 428.261719 C 898.628906 417.578125 907.152344 407.488281 917.914063 409.101563 C 918.300781 409.160156 918.695313 409.179688 919.085938 409.25 C 921.933594 409.761719 923.566406 408.359375 924.414063 405.808594 C 924.753906 404.789063 925.027344 403.738281 925.25 402.679688 C 926.148438 398.421875 928.621094 395.269531 932.058594 392.710938 C 937.429688 388.710938 941.675781 390.730469 945.046875 395.441406 C 948.121094 399.738281 949.503906 404.46875 949.300781 409.820313 C 949.140625 414.011719 950.035156 414.789063 954.148438 415.210938 C 958.210938 415.628906 962.003906 416.648438 964.175781 420.421875 C 967.703125 426.558594 967.683594 433 964.96875 439.398438 C 963.773438 442.230469 961.355469 442.828125 958.625 441.359375 C 956.984375 440.46875 955.445313 439.269531 953.699219 438.75 C 952.691406 438.449219 950.832031 438.820313 950.265625 439.570313 C 946.621094 444.441406 946.089844 448.75 949.429688 453.628906 C 953.046875 458.921875 958.503906 461.148438 964.34375 462.21875 C 968.007813 462.878906 971.9375 462.601563 975.683594 462.179688 C 979.144531 461.789063 982.089844 457.679688 980.675781 453.691406 C 979.859375 451.390625 979.648438 448.570313 980.132813 446.171875 C 981.121094 441.300781 983.074219 436.609375 984.035156 431.730469 C 984.816406 427.761719 985.683594 423.410156 984.808594 419.609375 C 983.347656 413.269531 981.125 406.941406 978.171875 401.128906 C 970.335938 385.71875 958.253906 376.441406 940.132813 376.488281 C 936.683594 376.488281 933.050781 375.761719 929.828125 374.519531 C 924.8125 372.589844 920.046875 370 915.226563 367.578125 C 909.792969 364.851563 904.578125 361.589844 898.960938 359.339844 C 895.339844 357.890625 891.171875 357.75 887.230469 357.171875 C 885.171875 356.859375 883.972656 357.898438 883.527344 360.019531 C 882.320313 365.78125 880.769531 371.46875 879.804688 377.269531 C 879.265625 380.488281 878.683594 384.21875 879.796875 387.070313 C 881.257813 390.800781 880.925781 393.359375 878.390625 396.128906 C 876.59375 398.101563 875.023438 400.28125 873.351563 402.359375 C 873.546875 402.648438 873.742188 402.929688 873.9375 403.21875 C 876.132813 402.53125 878.34375 401.878906 880.515625 401.128906 C 884.234375 399.851563 886.011719 400.898438 886.140625 404.710938 C 886.386719 411.769531 886.875 418.851563 886.601563 425.898438 C 886.367188 431.949219 885.417969 438 884.375 443.96875 C 883.820313 447.148438 882.605469 447.359375 880.199219 445.308594 C 876.308594 441.988281 872.496094 438.589844 868.585938 435.300781 C 867.628906 434.5 866.417969 434 865.324219 433.371094 M 858.238281 565.609375 C 843.507813 565.339844 826.402344 565.300781 809.324219 564.621094 C 795.988281 564.089844 782.65625 563.050781 769.382813 561.671875 C 762.882813 560.988281 756.429688 559.308594 750.128906 557.488281 C 745.175781 556.058594 741.054688 552.910156 737.601563 548.980469 C 734.582031 545.550781 734.296875 541.578125 735.914063 537.679688 C 738.535156 531.359375 737.75 525.398438 735.753906 519.070313 C 727.105469 491.660156 711.84375 468.179688 693.390625 446.53125 C 690.457031 443.089844 687.628906 439.539063 684.441406 436.351563 C 680.761719 432.660156 679.738281 428.480469 681.289063 423.691406 C 681.90625 421.789063 681.550781 420.410156 680.589844 418.761719 C 676.621094 411.960938 677.183594 406.828125 682.078125 400.601563 C 682.949219 399.5 683.234375 397.851563 683.546875 396.398438 C 684.40625 392.398438 684.824219 388.28125 686.050781 384.398438 C 686.644531 382.519531 688.773438 381.171875 690.007813 379.449219 C 691.4375 377.441406 693.640625 375.339844 693.769531 373.191406 C 694.105469 367.441406 696.917969 363.621094 701.402344 360.679688 C 703.402344 359.378906 704.125 357.789063 704.25 355.359375 C 704.546875 349.648438 707.238281 345.261719 712.710938 342.980469 C 715.363281 341.878906 717.179688 340.078125 717.828125 337.320313 C 719.363281 330.769531 723.308594 326.929688 729.964844 325.671875 C 731.054688 325.46875 732.105469 324.210938 732.859375 323.210938 C 735.136719 320.160156 736.957031 316.710938 739.550781 313.988281 C 741.109375 312.351563 743.832031 311.859375 745.945313 310.699219 C 747.480469 309.859375 749.476563 309.089844 750.226563 307.710938 C 753.1875 302.300781 757.988281 299.929688 763.589844 298.429688 C 764.949219 298.058594 766.484375 297.191406 767.289063 296.078125 C 771.195313 290.710938 776.191406 287.871094 782.976563 287.640625 C 785.367188 287.550781 788.214844 286.238281 789.949219 284.550781 C 793.535156 281.050781 797.324219 279.269531 802.359375 280.078125 C 808.996094 281.160156 814.847656 278.050781 820.890625 276.191406 C 829.324219 273.578125 828.585938 275.269531 828.585938 265.621094 C 828.589844 258.578125 828.816406 251.519531 829.242188 244.488281 C 829.449219 241.089844 831.070313 240.53125 833.976563 242.46875 C 835.363281 243.390625 836.574219 244.578125 837.964844 245.488281 C 838.722656 245.988281 839.691406 246.171875 840.5625 246.488281 C 840.734375 245.410156 841.234375 244.25 841.007813 243.261719 C 840.601563 241.460938 839.804688 239.75 839.097656 238.019531 C 836.847656 232.558594 837.8125 230.03125 843.695313 229.488281 C 851.484375 228.789063 859.394531 228.648438 867.195313 229.140625 C 873.324219 229.53125 874.539063 232.441406 872.277344 238.300781 C 871.535156 240.21875 870.777344 242.148438 870.261719 244.128906 C 870.078125 244.828125 870.355469 246.078125 870.859375 246.398438 C 871.339844 246.710938 872.539063 246.351563 873.144531 245.910156 C 874.5625 244.859375 875.765625 243.53125 877.152344 242.441406 C 879.828125 240.308594 881.671875 240.738281 882.046875 244.058594 C 882.675781 249.589844 882.773438 255.191406 882.910156 260.769531 C 882.988281 264.101563 882.738281 267.441406 882.59375 270.78125 C 882.515625 272.621094 883.335938 273.601563 885.089844 274.230469 C 892.769531 277 900.410156 279.449219 908.8125 279.179688 C 914.289063 278.988281 919.050781 281.480469 922.871094 285.621094 C 923.636719 286.449219 924.949219 286.96875 926.09375 287.199219 C 928.011719 287.578125 929.992188 287.660156 931.953125 287.800781 C 936.574219 288.121094 939.6875 290.898438 942.40625 294.25 C 944.4375 296.738281 946.613281 298.5 950.09375 298.960938 C 955.105469 299.621094 958.296875 303.171875 960.953125 307.289063 C 961.714844 308.46875 963.113281 309.808594 964.382813 310 C 970.980469 310.988281 974.699219 315.300781 977.421875 320.769531 C 978.859375 323.660156 980.691406 325.46875 984.015625 326.378906 C 989.03125 327.761719 992.546875 331.171875 993.65625 336.511719 C 994.304688 339.609375 995.78125 341.558594 998.964844 342.839844 C 1004.101563 344.898438 1006.910156 349.140625 1006.988281 354.789063 C 1007.019531 357.601563 1007.75 359.480469 1010.460938 360.929688 C 1014.570313 363.148438 1016.808594 367.109375 1017.558594 371.621094 C 1018.089844 374.761719 1019.230469 377.109375 1021.738281 379.238281 C 1026.5 383.28125 1027.921875 388.890625 1027.679688 394.929688 C 1027.578125 397.289063 1028.039063 399.171875 1029.628906 401.089844 C 1033.691406 405.980469 1034.808594 411.371094 1031.210938 417.101563 C 1029.601563 419.660156 1029.25 422.101563 1030.359375 425.148438 C 1032.039063 429.738281 1029.28125 433.328125 1026.378906 436.46875 C 1012.550781 451.488281 1000.300781 467.660156 989.902344 485.25 C 983.070313 496.808594 977.511719 508.898438 974.167969 521.941406 C 972.878906 526.96875 972.734375 531.980469 974.878906 536.941406 C 977.171875 542.261719 975.027344 548.960938 970.054688 552.300781 C 963.171875 556.921875 955.542969 559.429688 947.328125 560.648438 C 918.558594 564.910156 889.5625 564.691406 858.238281 565.609375 "/>
<path style=" stroke:none;fill-rule:evenodd;fill:rgb(69.410706%,64.704895%,28.627014%);fill-opacity:1;" d="M 833.171875 606.109375 C 833.140625 606.109375 833.113281 606.109375 833.085938 606.109375 C 833.085938 607.96875 833.066406 609.828125 833.089844 611.691406 C 833.125 614.53125 833.894531 615.199219 836.628906 614.800781 C 837.304688 614.699219 837.980469 614.570313 838.660156 614.488281 C 842.917969 613.949219 845.851563 610.148438 845.378906 605.78125 C 844.730469 599.820313 841.382813 596.320313 836.691406 596.640625 C 834.589844 596.789063 833.46875 597.71875 833.460938 599.949219 C 833.453125 602 833.273438 604.050781 833.171875 606.109375 M 828.304688 606.019531 C 828.304688 602.578125 828.148438 599.128906 828.398438 595.710938 C 828.480469 594.628906 829.476563 592.898438 830.351563 592.691406 C 835.863281 591.328125 841.253906 591.648438 846.023438 595.210938 C 850.335938 598.421875 851.429688 602.960938 851.035156 608.019531 C 850.65625 612.859375 844.703125 619.511719 839.078125 619.039063 C 836.253906 618.800781 833.378906 619.03125 830.535156 619.179688 C 828.621094 619.28125 827.863281 618.53125 827.898438 616.628906 C 827.964844 613.089844 827.917969 609.558594 827.917969 606.019531 "/>
<path style=" stroke:none;fill-rule:evenodd;fill:rgb(69.410706%,64.704895%,28.627014%);fill-opacity:1;" d="M 969 594.058594 C 969.160156 593.941406 966.15625 585.871094 964.140625 582.140625 C 963.609375 581.160156 961.730469 580.910156 960.472656 580.328125 C 959.890625 581.78125 958.617188 583.351563 958.859375 584.648438 C 959.480469 587.980469 960.574219 591.28125 961.871094 594.421875 C 962.464844 595.851563 963.839844 597.121094 965.15625 598.019531 C 965.703125 598.398438 967.378906 597.941406 967.917969 597.320313 C 968.605469 596.519531 968.667969 595.171875 969 594.058594 M 954.285156 584.089844 C 954.246094 579.359375 956.003906 576.820313 959.800781 575.75 C 963.480469 574.710938 966.84375 575.96875 968.449219 579.878906 C 970.441406 584.730469 972.25 589.761719 973.265625 594.878906 C 974.625 601.75 966.671875 604.78125 962.292969 602.339844 C 961.539063 601.910156 960.660156 601.441406 960.234375 600.75 C 957 595.511719 954.644531 589.949219 954.285156 584.089844 "/>
<path style=" stroke:none;fill-rule:evenodd;fill:rgb(69.410706%,64.704895%,28.627014%);fill-opacity:1;" d="M 757.621094 594.789063 C 755.824219 595.03125 754.019531 595.210938 752.234375 595.519531 C 750.742188 595.78125 748.976563 595.78125 747.871094 596.621094 C 746.035156 598 746.898438 601.21875 749.269531 602.46875 C 750.5625 603.160156 752.023438 603.539063 753.304688 604.25 C 753.859375 604.558594 754.605469 605.601563 754.453125 605.890625 C 754.136719 606.519531 753.203125 607.371094 752.671875 607.269531 C 749.117188 606.640625 745.574219 605.890625 742.109375 604.898438 C 741.519531 604.71875 740.832031 603.101563 741.007813 602.339844 C 742.636719 595.261719 744.429688 588.21875 746.207031 581.179688 C 746.863281 578.578125 749.304688 579.058594 750.816406 579.25 C 753.683594 579.601563 756.488281 580.648438 759.25 581.621094 C 759.808594 581.820313 760.464844 583.058594 760.308594 583.601563 C 760.15625 584.140625 759.050781 584.71875 758.351563 584.738281 C 756.792969 584.78125 755.230469 584.410156 753.664063 584.339844 C 751.820313 584.261719 750.335938 584.871094 750.015625 586.949219 C 749.679688 589.109375 750.558594 590.5 752.675781 591.21875 C 754.421875 591.820313 756.089844 592.628906 757.792969 593.339844 C 757.738281 593.828125 757.679688 594.308594 757.621094 594.789063 "/>
<path style=" stroke:none;fill-rule:evenodd;fill:rgb(69.410706%,64.704895%,28.627014%);fill-opacity:1;" d="M 777.066406 613.558594 C 775.035156 613.039063 772.882813 612.769531 771.03125 611.878906 C 770.289063 611.53125 770.195313 609.808594 769.808594 608.710938 C 770.839844 608.601563 771.886719 608.300781 772.894531 608.398438 C 774.53125 608.570313 776.15625 609.269531 777.757813 609.179688 C 778.667969 609.140625 779.878906 608.160156 780.289063 607.28125 C 780.628906 606.558594 780.308594 605.101563 779.730469 604.449219 C 778.167969 602.710938 776.265625 601.28125 774.582031 599.640625 C 771 596.140625 770.742188 592.019531 773.824219 588.710938 C 776.941406 585.378906 782.519531 584.890625 785.800781 587.839844 C 786.484375 588.460938 786.53125 589.789063 786.871094 590.789063 C 785.855469 590.988281 784.851563 591.289063 783.832031 591.359375 C 783.289063 591.398438 782.664063 590.789063 782.171875 590.898438 C 780.585938 591.25 778.5 591.339844 777.597656 592.378906 C 776.058594 594.171875 777.953125 595.5 779.269531 596.679688 C 780.589844 597.851563 781.949219 598.980469 783.210938 600.210938 C 786.171875 603.109375 786.59375 605.210938 785.089844 608.949219 C 783.617188 612.621094 782.421875 613.25 777.066406 613.558594 "/>
<path style=" stroke:none;fill-rule:evenodd;fill:rgb(69.410706%,64.704895%,28.627014%);fill-opacity:1;" d="M 808.097656 616.730469 C 806.855469 616.730469 806.273438 616.769531 805.695313 616.71875 C 805.324219 616.691406 804.964844 616.539063 804.117188 616.320313 C 804.453125 610.949219 804.714844 605.589844 805.148438 600.25 C 805.550781 595.269531 805.601563 595.339844 801.203125 593.230469 C 800.433594 592.871094 800.039063 591.710938 799.472656 590.929688 C 800.296875 590.398438 801.167969 589.371094 801.945313 589.441406 C 806.539063 589.808594 811.128906 590.359375 815.683594 591.070313 C 816.4375 591.191406 817.019531 592.421875 817.683594 593.140625 C 816.957031 593.671875 816.238281 594.640625 815.507813 594.648438 C 811.8125 594.679688 810.796875 596.601563 810.496094 600.03125 C 810.011719 605.570313 808.941406 611.058594 808.097656 616.730469 "/>
<path style=" stroke:none;fill-rule:evenodd;fill:rgb(69.410706%,64.704895%,28.627014%);fill-opacity:1;" d="M 883.773438 617.859375 C 883.046875 611.941406 882.203125 606.140625 881.667969 600.320313 C 881.445313 597.910156 880.894531 596.210938 878.355469 595.449219 C 877.609375 595.21875 877.121094 594.148438 876.515625 593.460938 C 877.265625 592.949219 877.988281 592.378906 878.78125 591.929688 C 879.191406 591.710938 879.726563 591.679688 880.210938 591.609375 C 885.058594 590.878906 885.894531 591.570313 886.253906 596.410156 C 886.710938 602.46875 887.191406 608.539063 887.671875 614.601563 C 887.917969 617.710938 887.921875 617.710938 883.773438 617.859375 "/>
<path style=" stroke:none;fill-rule:evenodd;fill:rgb(69.410706%,64.704895%,28.627014%);fill-opacity:1;" d="M 949.96875 540.851563 C 949.96875 546.960938 907.1875 551.910156 854.417969 551.910156 C 801.648438 551.910156 758.867188 546.960938 758.867188 540.851563 C 758.867188 534.738281 801.648438 529.789063 854.417969 529.789063 C 907.1875 529.789063 949.96875 534.738281 949.96875 540.851563 "/>
<path style=" stroke:none;fill-rule:nonzero;fill:rgb(69.410706%,64.704895%,28.627014%);fill-opacity:1;" d="M 832.769531 1210.695313 L 832.769531 1232.136719 L 831.078125 1232.136719 C 830.53125 1228.019531 829.546875 1224.746094 828.132813 1222.308594 C 826.714844 1219.867188 824.695313 1217.933594 822.074219 1216.503906 C 819.453125 1215.070313 816.738281 1214.351563 813.9375 1214.351563 C 810.765625 1214.351563 808.144531 1215.320313 806.074219 1217.257813 C 804 1219.191406 802.964844 1221.390625 802.964844 1223.863281 C 802.964844 1225.753906 803.621094 1227.476563 804.929688 1229.027344 C 806.820313 1231.3125 811.3125 1234.363281 818.417969 1238.171875 C 824.207031 1241.28125 828.160156 1243.667969 830.28125 1245.324219 C 832.398438 1246.988281 834.027344 1248.945313 835.171875 1251.199219 C 836.316406 1253.457031 836.886719 1255.820313 836.886719 1258.285156 C 836.886719 1262.980469 835.066406 1267.027344 831.421875 1270.425781 C 827.78125 1273.824219 823.09375 1275.523438 817.367188 1275.523438 C 815.566406 1275.523438 813.875 1275.386719 812.289063 1275.113281 C 811.34375 1274.960938 809.386719 1274.402344 806.414063 1273.445313 C 803.445313 1272.480469 801.5625 1272.003906 800.769531 1272.003906 C 800.007813 1272.003906 799.40625 1272.230469 798.964844 1272.6875 C 798.519531 1273.144531 798.195313 1274.089844 797.980469 1275.523438 L 796.289063 1275.523438 L 796.289063 1254.265625 L 797.980469 1254.265625 C 798.773438 1258.714844 799.839844 1262.046875 801.179688 1264.253906 C 802.523438 1266.464844 804.570313 1268.300781 807.328125 1269.761719 C 810.089844 1271.226563 813.113281 1271.957031 816.40625 1271.957031 C 820.214844 1271.957031 823.222656 1270.949219 825.433594 1268.9375 C 827.644531 1266.929688 828.75 1264.550781 828.75 1261.808594 C 828.75 1260.285156 828.328125 1258.742188 827.492188 1257.1875 C 826.652344 1255.636719 825.351563 1254.1875 823.585938 1252.847656 C 822.394531 1251.933594 819.148438 1249.992188 813.84375 1247.015625 C 808.542969 1244.046875 804.769531 1241.679688 802.53125 1239.910156 C 800.289063 1238.140625 798.589844 1236.191406 797.433594 1234.058594 C 796.273438 1231.925781 795.695313 1229.574219 795.695313 1227.015625 C 795.695313 1222.566406 797.402344 1218.734375 800.816406 1215.515625 C 804.230469 1212.304688 808.570313 1210.695313 813.84375 1210.695313 C 817.136719 1210.695313 820.625 1211.503906 824.3125 1213.117188 C 826.019531 1213.882813 827.222656 1214.261719 827.925781 1214.261719 C 828.71875 1214.261719 829.367188 1214.027344 829.867188 1213.554688 C 830.371094 1213.078125 830.773438 1212.128906 831.078125 1210.695313 "/>
<path style=" stroke:none;fill-rule:nonzero;fill:rgb(69.410706%,64.704895%,28.627014%);fill-opacity:1;" d="M 860.195313 1242.691406 C 862.542969 1242.691406 864.546875 1243.519531 866.203125 1245.183594 C 867.863281 1246.839844 868.691406 1248.839844 868.691406 1251.1875 C 868.691406 1253.535156 867.863281 1255.539063 866.203125 1257.199219 C 864.546875 1258.855469 862.542969 1259.683594 860.195313 1259.683594 C 857.847656 1259.683594 855.84375 1258.855469 854.1875 1257.199219 C 852.527344 1255.539063 851.699219 1253.535156 851.699219 1251.1875 C 851.699219 1248.839844 852.523438 1246.839844 854.171875 1245.183594 C 855.816406 1243.519531 857.824219 1242.691406 860.195313 1242.691406 "/>
<path style=" stroke:none;fill-rule:nonzero;fill:rgb(69.410706%,64.704895%,28.627014%);fill-opacity:1;" d="M 932.980469 1210.695313 L 934.398438 1231.769531 L 932.980469 1231.769531 C 931.089844 1225.464844 928.394531 1220.921875 924.890625 1218.144531 C 921.382813 1215.375 917.179688 1213.988281 912.273438 1213.988281 C 908.15625 1213.988281 904.4375 1215.03125 901.117188 1217.117188 C 897.792969 1219.207031 895.183594 1222.535156 893.277344 1227.105469 C 891.375 1231.679688 890.421875 1237.367188 890.421875 1244.160156 C 890.421875 1249.769531 891.320313 1254.632813 893.117188 1258.742188 C 894.917969 1262.859375 897.621094 1266.015625 901.230469 1268.210938 C 904.84375 1270.402344 908.964844 1271.5 913.597656 1271.5 C 917.621094 1271.5 921.171875 1270.640625 924.25 1268.917969 C 927.328125 1267.195313 930.710938 1263.773438 934.398438 1258.652344 L 935.816406 1259.570313 C 932.710938 1265.085938 929.082031 1269.121094 924.933594 1271.683594 C 920.789063 1274.242188 915.867188 1275.523438 910.171875 1275.523438 C 899.898438 1275.523438 891.945313 1271.714844 886.304688 1264.09375 C 882.101563 1258.425781 879.996094 1251.75 879.996094 1244.070313 C 879.996094 1237.882813 881.382813 1232.199219 884.15625 1227.015625 C 886.929688 1221.835938 890.75 1217.820313 895.609375 1214.972656 C 900.46875 1212.121094 905.78125 1210.695313 911.539063 1210.695313 C 916.019531 1210.695313 920.441406 1211.792969 924.796875 1213.988281 C 926.078125 1214.660156 926.992188 1214.992188 927.542969 1214.992188 C 928.363281 1214.992188 929.082031 1214.703125 929.691406 1214.125 C 930.480469 1213.300781 931.046875 1212.160156 931.382813 1210.695313 "/>
<path style=" stroke:none;fill-rule:nonzero;fill:rgb(69.410706%,64.704895%,28.627014%);fill-opacity:1;" d="M 809.136719 1348.207031 C 812.671875 1349.027344 816.160156 1349.441406 819.605469 1349.441406 C 825.121094 1349.441406 829.328125 1348.199219 832.222656 1345.714844 C 835.117188 1343.230469 836.566406 1340.160156 836.566406 1336.503906 C 836.566406 1334.097656 835.910156 1331.777344 834.601563 1329.554688 C 833.289063 1327.328125 831.15625 1325.574219 828.199219 1324.296875 C 825.242188 1323.019531 821.585938 1322.378906 817.226563 1322.378906 C 815.335938 1322.378906 813.722656 1322.40625 812.382813 1322.46875 C 811.039063 1322.527344 809.960938 1322.636719 809.136719 1322.789063 Z M 809.136719 1318.582031 C 810.261719 1318.796875 811.550781 1318.953125 813 1319.0625 C 814.445313 1319.171875 816.039063 1319.222656 817.777344 1319.222656 C 822.226563 1319.222656 825.570313 1318.742188 827.8125 1317.78125 C 830.050781 1316.820313 831.765625 1315.351563 832.953125 1313.371094 C 834.144531 1311.390625 834.738281 1309.226563 834.738281 1306.878906 C 834.738281 1303.253906 833.257813 1300.15625 830.304688 1297.597656 C 827.347656 1295.035156 823.035156 1293.757813 817.363281 1293.757813 C 814.316406 1293.757813 811.574219 1294.09375 809.136719 1294.765625 Z M 833.09375 1321.050781 C 837.390625 1321.964844 840.605469 1323.429688 842.738281 1325.4375 C 845.695313 1328.242188 847.171875 1331.675781 847.171875 1335.726563 C 847.171875 1338.804688 846.195313 1341.753906 844.246094 1344.570313 C 842.296875 1347.394531 839.621094 1349.449219 836.222656 1350.742188 C 832.824219 1352.039063 827.636719 1352.6875 820.65625 1352.6875 L 791.398438 1352.6875 L 791.398438 1350.996094 L 793.730469 1350.996094 C 796.320313 1350.996094 798.179688 1350.171875 799.308594 1348.527344 C 800.007813 1347.460938 800.359375 1345.1875 800.359375 1341.714844 L 800.359375 1301.664063 C 800.359375 1297.824219 799.914063 1295.402344 799.03125 1294.398438 C 797.84375 1293.058594 796.074219 1292.386719 793.730469 1292.386719 L 791.398438 1292.386719 L 791.398438 1290.695313 L 818.1875 1290.695313 C 823.1875 1290.695313 827.195313 1291.0625 830.210938 1291.789063 C 834.78125 1292.890625 838.273438 1294.832031 840.679688 1297.621094 C 843.089844 1300.410156 844.292969 1303.617188 844.292969 1307.242188 C 844.292969 1310.351563 843.347656 1313.136719 841.457031 1315.589844 C 839.566406 1318.039063 836.78125 1319.859375 833.09375 1321.050781 "/>
<path style=" stroke:none;fill-rule:nonzero;fill:rgb(69.410706%,64.704895%,28.627014%);fill-opacity:1;" d="M 899.425781 1348.207031 C 902.960938 1349.027344 906.449219 1349.441406 909.894531 1349.441406 C 915.410156 1349.441406 919.617188 1348.199219 922.511719 1345.714844 C 925.40625 1343.230469 926.855469 1340.160156 926.855469 1336.503906 C 926.855469 1334.097656 926.199219 1331.777344 924.890625 1329.554688 C 923.578125 1327.328125 921.445313 1325.574219 918.488281 1324.296875 C 915.53125 1323.019531 911.875 1322.378906 907.515625 1322.378906 C 905.625 1322.378906 904.011719 1322.40625 902.671875 1322.46875 C 901.328125 1322.527344 900.246094 1322.636719 899.425781 1322.789063 Z M 899.425781 1318.582031 C 900.550781 1318.796875 901.839844 1318.953125 903.289063 1319.0625 C 904.734375 1319.171875 906.328125 1319.222656 908.066406 1319.222656 C 912.515625 1319.222656 915.859375 1318.742188 918.101563 1317.78125 C 920.339844 1316.820313 922.054688 1315.351563 923.242188 1313.371094 C 924.433594 1311.390625 925.027344 1309.226563 925.027344 1306.878906 C 925.027344 1303.253906 923.546875 1300.15625 920.59375 1297.597656 C 917.636719 1295.035156 913.324219 1293.757813 907.652344 1293.757813 C 904.605469 1293.757813 901.863281 1294.09375 899.425781 1294.765625 Z M 923.378906 1321.050781 C 927.679688 1321.964844 930.894531 1323.429688 933.027344 1325.4375 C 935.984375 1328.242188 937.460938 1331.675781 937.460938 1335.726563 C 937.460938 1338.804688 936.484375 1341.753906 934.535156 1344.570313 C 932.585938 1347.394531 929.910156 1349.449219 926.511719 1350.742188 C 923.113281 1352.039063 917.925781 1352.6875 910.945313 1352.6875 L 881.6875 1352.6875 L 881.6875 1350.996094 L 884.019531 1350.996094 C 886.609375 1350.996094 888.46875 1350.171875 889.597656 1348.527344 C 890.296875 1347.460938 890.648438 1345.1875 890.648438 1341.714844 L 890.648438 1301.664063 C 890.648438 1297.824219 890.207031 1295.402344 889.324219 1294.398438 C 888.136719 1293.058594 886.367188 1292.386719 884.019531 1292.386719 L 881.6875 1292.386719 L 881.6875 1290.695313 L 908.476563 1290.695313 C 913.476563 1290.695313 917.484375 1291.0625 920.5 1291.789063 C 925.074219 1292.890625 928.5625 1294.832031 930.96875 1297.621094 C 933.378906 1300.410156 934.582031 1303.617188 934.582031 1307.242188 C 934.582031 1310.351563 933.636719 1313.136719 931.746094 1315.589844 C 929.855469 1318.039063 927.070313 1319.859375 923.378906 1321.050781 "/>
<path style=" stroke:none;fill-rule:nonzero;fill:rgb(69.410706%,64.704895%,28.627014%);fill-opacity:1;" d="M 864.890625 1318.007813 C 866.441406 1317.269531 867.601563 1316.429688 868.375 1315.488281 C 869.144531 1314.554688 869.527344 1313.507813 869.527344 1312.355469 C 869.527344 1311.453125 869.25 1310.710938 868.691406 1310.121094 C 868.136719 1309.53125 867.445313 1309.238281 866.617188 1309.238281 C 865.527344 1309.238281 864.707031 1309.617188 864.148438 1310.375 C 863.59375 1311.132813 863.3125 1311.871094 863.3125 1312.601563 C 863.3125 1313.214844 863.417969 1313.898438 863.632813 1314.65625 C 863.84375 1315.410156 864.265625 1316.527344 864.890625 1318.007813 M 867.800781 1329.742188 C 866.148438 1327.488281 865.003906 1325.84375 864.363281 1324.804688 C 863.726563 1323.765625 863.023438 1322.476563 862.261719 1320.9375 C 860.757813 1321.800781 859.628906 1322.753906 858.871094 1323.789063 C 858.113281 1324.828125 857.734375 1325.957031 857.734375 1327.171875 C 857.734375 1328.511719 858.167969 1329.6875 859.03125 1330.699219 C 859.894531 1331.714844 861.058594 1332.222656 862.523438 1332.222656 C 863.3125 1332.222656 864.074219 1332.066406 864.804688 1331.753906 C 865.539063 1331.441406 866.535156 1330.769531 867.800781 1329.742188 M 872.0625 1317.519531 L 879.949219 1317.519531 L 879.949219 1318.214844 C 878.859375 1318.300781 878.054688 1318.542969 877.535156 1318.9375 C 877.015625 1319.328125 876.207031 1320.523438 875.105469 1322.515625 C 874.003906 1324.503906 872.761719 1326.363281 871.386719 1328.089844 C 872.5 1329.394531 873.496094 1330.304688 874.371094 1330.820313 C 875.25 1331.34375 876.132813 1331.601563 877.019531 1331.601563 C 877.882813 1331.601563 878.617188 1331.367188 879.21875 1330.898438 C 879.816406 1330.429688 880.242188 1329.738281 880.492188 1328.820313 L 881.1875 1329.328125 C 880.726563 1331.09375 879.980469 1332.398438 878.953125 1333.234375 C 877.925781 1334.074219 876.730469 1334.492188 875.367188 1334.492188 C 874.339844 1334.492188 873.296875 1334.214844 872.242188 1333.65625 C 871.183594 1333.101563 870.027344 1332.15625 868.777344 1330.832031 C 867.222656 1332.210938 865.824219 1333.160156 864.582031 1333.695313 C 863.335938 1334.226563 862.003906 1334.492188 860.589844 1334.492188 C 858.523438 1334.492188 856.886719 1333.941406 855.671875 1332.839844 C 854.457031 1331.738281 853.847656 1330.425781 853.847656 1328.898438 C 853.847656 1327.382813 854.394531 1325.871094 855.484375 1324.363281 C 856.570313 1322.855469 858.617188 1321.292969 861.621094 1319.679688 C 861.035156 1318.378906 860.632813 1317.308594 860.421875 1316.476563 C 860.207031 1315.644531 860.101563 1314.847656 860.101563 1314.082031 C 860.101563 1311.941406 860.890625 1310.308594 862.46875 1309.183594 C 863.695313 1308.308594 865.089844 1307.867188 866.65625 1307.867188 C 868.144531 1307.867188 869.359375 1308.308594 870.296875 1309.191406 C 871.238281 1310.074219 871.707031 1311.160156 871.707031 1312.449219 C 871.707031 1313.777344 871.253906 1314.941406 870.34375 1315.941406 C 869.4375 1316.945313 867.832031 1318.039063 865.527344 1319.230469 C 867.117188 1322.058594 868.777344 1324.648438 870.503906 1327.003906 C 872.707031 1324.371094 873.808594 1322.15625 873.808594 1320.355469 C 873.808594 1319.777344 873.621094 1319.265625 873.246094 1318.816406 C 872.96875 1318.476563 872.574219 1318.277344 872.0625 1318.214844 "/>
<path style=" stroke:none;fill-rule:nonzero;fill:rgb(69.410706%,64.704895%,28.627014%);fill-opacity:1;" d="M 808.894531 1174.050781 L 809.375 1173.890625 L 810.683594 1179.570313 L 797.011719 1187.605469 L 796.730469 1187.121094 L 797.394531 1186.734375 C 798.140625 1186.296875 798.53125 1185.738281 798.566406 1185.0625 C 798.585938 1184.679688 798.296875 1183.984375 797.703125 1182.976563 L 791.007813 1171.582031 C 790.359375 1170.480469 789.832031 1169.863281 789.425781 1169.726563 C 788.863281 1169.542969 788.246094 1169.648438 787.578125 1170.039063 L 786.914063 1170.433594 L 786.632813 1169.949219 L 794.628906 1165.25 L 794.910156 1165.734375 C 793.96875 1166.277344 793.359375 1166.746094 793.089844 1167.152344 C 792.820313 1167.558594 792.699219 1167.9375 792.722656 1168.296875 C 792.746094 1168.65625 793.066406 1169.363281 793.683594 1170.410156 L 800.203125 1181.507813 C 800.628906 1182.226563 800.988281 1182.679688 801.289063 1182.867188 C 801.496094 1182.988281 801.738281 1183.027344 802.003906 1182.988281 C 802.273438 1182.945313 802.976563 1182.59375 804.113281 1181.925781 L 805.402344 1181.164063 C 806.757813 1180.367188 807.648438 1179.710938 808.078125 1179.191406 C 808.507813 1178.667969 808.796875 1178.023438 808.953125 1177.246094 C 809.105469 1176.476563 809.085938 1175.40625 808.894531 1174.050781 "/>
<path style=" stroke:none;fill-rule:nonzero;fill:rgb(69.410706%,64.704895%,28.627014%);fill-opacity:1;" d="M 819.65625 1154.460938 C 817.925781 1155.054688 816.753906 1156.175781 816.148438 1157.820313 C 815.394531 1159.867188 815.546875 1162.4375 816.605469 1165.519531 C 817.695313 1168.683594 819.207031 1170.882813 821.144531 1172.121094 C 822.625 1173.0625 824.21875 1173.234375 825.925781 1172.648438 C 827.742188 1172.027344 829 1170.800781 829.699219 1168.976563 C 830.398438 1167.148438 830.222656 1164.707031 829.171875 1161.648438 C 828.03125 1158.335938 826.53125 1156.089844 824.667969 1154.910156 C 823.175781 1153.976563 821.503906 1153.824219 819.65625 1154.460938 M 819.570313 1153.320313 C 822.085938 1152.460938 824.589844 1152.664063 827.089844 1153.941406 C 829.589844 1155.21875 831.328125 1157.285156 832.308594 1160.140625 C 833.320313 1163.085938 833.230469 1165.847656 832.042969 1168.425781 C 830.851563 1171.007813 828.9375 1172.75 826.300781 1173.65625 C 823.636719 1174.570313 821.070313 1174.394531 818.605469 1173.121094 C 816.140625 1171.851563 814.390625 1169.710938 813.355469 1166.699219 C 812.300781 1163.625 812.484375 1160.757813 813.910156 1158.09375 C 815.152344 1155.78125 817.039063 1154.191406 819.570313 1153.320313 "/>
<path style=" stroke:none;fill-rule:nonzero;fill:rgb(69.410706%,64.704895%,28.627014%);fill-opacity:1;" d="M 837.175781 1148.546875 L 842.695313 1147.898438 L 856.914063 1161.699219 L 855.542969 1149.972656 C 855.398438 1148.722656 855.167969 1147.957031 854.851563 1147.679688 C 854.433594 1147.304688 853.824219 1147.160156 853.023438 1147.253906 L 852.316406 1147.339844 L 852.253906 1146.78125 L 859.332031 1145.953125 L 859.398438 1146.511719 L 858.675781 1146.59375 C 857.816406 1146.691406 857.238281 1147.023438 856.9375 1147.589844 C 856.757813 1147.933594 856.730469 1148.675781 856.863281 1149.816406 L 858.867188 1166.964844 L 858.328125 1167.023438 L 843.003906 1152.214844 L 844.46875 1164.738281 C 844.613281 1165.988281 844.839844 1166.753906 845.148438 1167.03125 C 845.574219 1167.40625 846.183594 1167.550781 846.976563 1167.453125 L 847.695313 1167.371094 L 847.761719 1167.925781 L 840.679688 1168.753906 L 840.613281 1168.199219 L 841.320313 1168.117188 C 842.191406 1168.015625 842.773438 1167.683594 843.074219 1167.121094 C 843.257813 1166.773438 843.28125 1166.03125 843.148438 1164.894531 L 841.492188 1150.746094 C 840.824219 1150.125 840.324219 1149.722656 839.992188 1149.539063 C 839.660156 1149.355469 839.191406 1149.199219 838.578125 1149.078125 C 838.277344 1149.023438 837.832031 1149.03125 837.242188 1149.101563 "/>
<path style=" stroke:none;fill-rule:nonzero;fill:rgb(69.410706%,64.704895%,28.627014%);fill-opacity:1;" d="M 871.878906 1165.339844 C 873.121094 1165.742188 874.175781 1165.984375 875.039063 1166.066406 C 877.363281 1166.285156 879.371094 1165.652344 881.0625 1164.164063 C 882.75 1162.679688 883.726563 1160.535156 883.992188 1157.738281 C 884.257813 1154.921875 883.703125 1152.628906 882.324219 1150.859375 C 880.945313 1149.089844 879.054688 1148.089844 876.644531 1147.859375 C 875.742188 1147.777344 874.703125 1147.824219 873.523438 1148.007813 Z M 865.917969 1166.261719 L 865.972656 1165.703125 L 866.738281 1165.777344 C 867.601563 1165.859375 868.234375 1165.644531 868.648438 1165.125 C 868.902344 1164.816406 869.082031 1164.085938 869.191406 1162.933594 L 870.441406 1149.761719 C 870.5625 1148.488281 870.5 1147.679688 870.25 1147.328125 C 869.898438 1146.851563 869.339844 1146.574219 868.566406 1146.503906 L 867.800781 1146.429688 L 867.855469 1145.871094 L 876.152344 1146.660156 C 879.199219 1146.949219 881.484375 1147.519531 883.007813 1148.359375 C 884.53125 1149.199219 885.699219 1150.476563 886.515625 1152.183594 C 887.328125 1153.890625 887.632813 1155.800781 887.433594 1157.910156 C 887.164063 1160.75 886.078125 1163.039063 884.171875 1164.777344 C 882.035156 1166.722656 878.988281 1167.503906 875.027344 1167.128906 "/>
<path style=" stroke:none;fill-rule:nonzero;fill:rgb(69.410706%,64.704895%,28.627014%);fill-opacity:1;" d="M 907.347656 1153.417969 C 905.601563 1152.859375 903.992188 1153.0625 902.523438 1154.019531 C 900.695313 1155.210938 899.285156 1157.359375 898.292969 1160.46875 C 897.277344 1163.652344 897.175781 1166.320313 897.988281 1168.472656 C 898.617188 1170.109375 899.789063 1171.203125 901.507813 1171.753906 C 903.339844 1172.339844 905.082031 1172.105469 906.730469 1171.058594 C 908.382813 1170.011719 909.699219 1167.945313 910.679688 1164.867188 C 911.746094 1161.527344 911.886719 1158.832031 911.09375 1156.773438 C 910.457031 1155.132813 909.207031 1154.011719 907.347656 1153.417969 M 907.953125 1152.453125 C 910.488281 1153.265625 912.375 1154.925781 913.617188 1157.441406 C 914.859375 1159.957031 915.019531 1162.652344 914.101563 1165.53125 C 913.152344 1168.496094 911.433594 1170.65625 908.9375 1172.015625 C 906.441406 1173.375 903.867188 1173.632813 901.210938 1172.78125 C 898.523438 1171.925781 896.570313 1170.25 895.355469 1167.757813 C 894.140625 1165.265625 894.015625 1162.503906 894.980469 1159.472656 C 895.972656 1156.375 897.832031 1154.1875 900.566406 1152.902344 C 902.941406 1151.789063 905.402344 1151.640625 907.953125 1152.453125 "/>
<path style=" stroke:none;fill-rule:nonzero;fill:rgb(69.410706%,64.704895%,28.627014%);fill-opacity:1;" d="M 924.921875 1159.132813 L 929.730469 1161.910156 L 932.894531 1181.472656 L 938.800781 1171.242188 C 939.433594 1170.152344 939.699219 1169.402344 939.613281 1168.988281 C 939.503906 1168.4375 939.097656 1167.960938 938.398438 1167.558594 L 937.785156 1167.203125 L 938.0625 1166.71875 L 944.238281 1170.28125 L 943.960938 1170.769531 L 943.332031 1170.402344 C 942.578125 1169.972656 941.917969 1169.890625 941.339844 1170.164063 C 940.988281 1170.332031 940.523438 1170.914063 939.953125 1171.90625 L 931.320313 1186.859375 L 930.851563 1186.585938 L 927.402344 1165.554688 L 921.097656 1176.476563 C 920.46875 1177.566406 920.191406 1178.3125 920.273438 1178.71875 C 920.394531 1179.277344 920.796875 1179.753906 921.484375 1180.152344 L 922.113281 1180.515625 L 921.835938 1180.996094 L 915.660156 1177.433594 L 915.941406 1176.949219 L 916.554688 1177.304688 C 917.3125 1177.742188 917.980469 1177.824219 918.558594 1177.554688 C 918.910156 1177.386719 919.371094 1176.804688 919.945313 1175.808594 L 927.066406 1163.476563 C 926.898438 1162.574219 926.738281 1161.953125 926.585938 1161.609375 C 926.425781 1161.265625 926.140625 1160.859375 925.722656 1160.398438 C 925.515625 1160.171875 925.152344 1159.910156 924.640625 1159.613281 "/>
<path style=" stroke:none;fill-rule:nonzero;fill:rgb(69.410706%,64.704895%,28.627014%);fill-opacity:1;" d="M 792.585938 1378.621094 L 788.03125 1384.046875 L 787.605469 1383.6875 C 788.339844 1382.527344 788.785156 1381.488281 788.945313 1380.570313 C 789.105469 1379.65625 789.003906 1378.734375 788.644531 1377.816406 C 788.285156 1376.898438 787.753906 1376.140625 787.042969 1375.546875 C 786.242188 1374.871094 785.371094 1374.558594 784.4375 1374.609375 C 783.5 1374.660156 782.773438 1374.996094 782.246094 1375.621094 C 781.847656 1376.101563 781.644531 1376.675781 781.648438 1377.347656 C 781.640625 1378.324219 782.132813 1380.054688 783.117188 1382.523438 C 783.925781 1384.539063 784.417969 1385.984375 784.601563 1386.855469 C 784.785156 1387.726563 784.78125 1388.566406 784.59375 1389.382813 C 784.402344 1390.191406 784.046875 1390.910156 783.519531 1391.535156 C 782.523438 1392.726563 781.203125 1393.363281 779.5625 1393.449219 C 777.917969 1393.535156 776.371094 1392.972656 774.921875 1391.753906 C 774.464844 1391.371094 774.066406 1390.976563 773.722656 1390.570313 C 773.515625 1390.332031 773.140625 1389.773438 772.59375 1388.902344 C 772.042969 1388.027344 771.667969 1387.507813 771.46875 1387.339844 C 771.277344 1387.175781 771.074219 1387.105469 770.867188 1387.128906 C 770.65625 1387.148438 770.375 1387.320313 770.015625 1387.636719 L 769.585938 1387.277344 L 774.101563 1381.898438 L 774.53125 1382.257813 C 773.785156 1383.550781 773.347656 1384.621094 773.21875 1385.464844 C 773.089844 1386.308594 773.21875 1387.210938 773.605469 1388.164063 C 773.992188 1389.121094 774.601563 1389.945313 775.433594 1390.644531 C 776.398438 1391.453125 777.375 1391.839844 778.359375 1391.800781 C 779.347656 1391.761719 780.132813 1391.394531 780.714844 1390.699219 C 781.039063 1390.3125 781.257813 1389.835938 781.375 1389.265625 C 781.496094 1388.691406 781.472656 1388.050781 781.308594 1387.335938 C 781.203125 1386.851563 780.792969 1385.671875 780.082031 1383.792969 C 779.371094 1381.914063 778.921875 1380.515625 778.730469 1379.589844 C 778.539063 1378.667969 778.523438 1377.8125 778.683594 1377.027344 C 778.84375 1376.242188 779.195313 1375.523438 779.738281 1374.878906 C 780.683594 1373.75 781.929688 1373.140625 783.476563 1373.054688 C 785.023438 1372.964844 786.460938 1373.480469 787.796875 1374.601563 C 788.628906 1375.300781 789.339844 1376.246094 789.933594 1377.4375 C 790.199219 1377.992188 790.425781 1378.34375 790.601563 1378.492188 C 790.804688 1378.660156 791.015625 1378.738281 791.246094 1378.726563 C 791.472656 1378.714844 791.777344 1378.558594 792.15625 1378.261719 "/>
<path style=" stroke:none;fill-rule:nonzero;fill:rgb(69.410706%,64.704895%,28.627014%);fill-opacity:1;" d="M 797.816406 1394.183594 L 806.132813 1398.808594 L 808.980469 1393.6875 C 809.488281 1392.773438 809.765625 1392.140625 809.816406 1391.785156 C 809.847656 1391.515625 809.769531 1391.222656 809.578125 1390.910156 C 809.316406 1390.488281 808.972656 1390.160156 808.550781 1389.925781 L 807.917969 1389.570313 L 808.1875 1389.082031 L 815.84375 1393.339844 L 815.574219 1393.828125 L 814.9375 1393.476563 C 814.515625 1393.242188 814.058594 1393.121094 813.570313 1393.113281 C 813.210938 1393.097656 812.898438 1393.203125 812.640625 1393.433594 C 812.378906 1393.664063 812.003906 1394.21875 811.515625 1395.097656 L 805.089844 1406.648438 C 804.585938 1407.554688 804.308594 1408.183594 804.261719 1408.539063 C 804.230469 1408.804688 804.304688 1409.09375 804.488281 1409.40625 C 804.757813 1409.832031 805.105469 1410.164063 805.527344 1410.398438 L 806.160156 1410.75 L 805.886719 1411.238281 L 798.234375 1406.980469 L 798.503906 1406.492188 L 799.136719 1406.84375 C 799.867188 1407.25 800.519531 1407.328125 801.09375 1407.085938 C 801.472656 1406.925781 801.960938 1406.3125 802.554688 1405.238281 L 805.589844 1399.785156 L 797.273438 1395.160156 L 794.242188 1400.613281 C 793.738281 1401.519531 793.464844 1402.148438 793.414063 1402.5 C 793.378906 1402.769531 793.460938 1403.0625 793.652344 1403.378906 C 793.914063 1403.800781 794.253906 1404.128906 794.675781 1404.363281 L 795.324219 1404.722656 L 795.050781 1405.210938 L 787.382813 1400.945313 L 787.65625 1400.453125 L 788.289063 1400.808594 C 789.027344 1401.21875 789.683594 1401.304688 790.257813 1401.058594 C 790.628906 1400.894531 791.109375 1400.277344 791.707031 1399.203125 L 798.132813 1387.652344 C 798.640625 1386.738281 798.921875 1386.105469 798.964844 1385.746094 C 799 1385.480469 798.925781 1385.191406 798.742188 1384.882813 C 798.46875 1384.453125 798.125 1384.121094 797.703125 1383.890625 L 797.070313 1383.535156 L 797.339844 1383.046875 L 805.007813 1387.3125 L 804.738281 1387.800781 L 804.089844 1387.441406 C 803.667969 1387.207031 803.210938 1387.085938 802.71875 1387.078125 C 802.371094 1387.066406 802.0625 1387.175781 801.796875 1387.402344 C 801.53125 1387.628906 801.15625 1388.183594 800.664063 1389.0625 "/>
<path style=" stroke:none;fill-rule:nonzero;fill:rgb(69.410706%,64.704895%,28.627014%);fill-opacity:1;" d="M 824.9375 1397.671875 L 822.476563 1405.382813 L 826.765625 1406.753906 C 827.878906 1407.105469 828.675781 1407.175781 829.15625 1406.960938 C 829.796875 1406.679688 830.324219 1405.988281 830.734375 1404.894531 L 831.265625 1405.066406 L 829.101563 1411.855469 L 828.570313 1411.6875 C 828.738281 1410.691406 828.796875 1410.039063 828.75 1409.730469 C 828.683594 1409.339844 828.484375 1408.984375 828.152344 1408.667969 C 827.820313 1408.351563 827.246094 1408.0625 826.429688 1407.800781 L 822.144531 1406.433594 L 820.089844 1412.863281 C 819.816406 1413.730469 819.6875 1414.269531 819.703125 1414.480469 C 819.722656 1414.691406 819.808594 1414.882813 819.964844 1415.054688 C 820.121094 1415.226563 820.46875 1415.398438 821.003906 1415.566406 L 824.316406 1416.621094 C 825.417969 1416.976563 826.242188 1417.152344 826.789063 1417.15625 C 827.339844 1417.164063 827.914063 1417.015625 828.519531 1416.710938 C 829.304688 1416.308594 830.199219 1415.605469 831.203125 1414.605469 L 831.78125 1414.785156 L 828.539063 1419.144531 L 813.5 1414.347656 L 813.671875 1413.816406 L 814.359375 1414.035156 C 814.820313 1414.183594 815.292969 1414.210938 815.777344 1414.121094 C 816.132813 1414.066406 816.414063 1413.902344 816.621094 1413.632813 C 816.828125 1413.359375 817.085938 1412.746094 817.390625 1411.800781 L 821.429688 1399.121094 C 821.828125 1397.882813 821.945313 1397.082031 821.785156 1396.714844 C 821.5625 1396.222656 821.050781 1395.84375 820.242188 1395.589844 L 819.554688 1395.367188 L 819.722656 1394.835938 L 834.757813 1399.632813 L 833.613281 1403.972656 L 833.050781 1403.792969 C 833.175781 1402.703125 833.179688 1401.929688 833.058594 1401.464844 C 832.933594 1401.003906 832.664063 1400.597656 832.25 1400.242188 C 831.914063 1399.976563 831.257813 1399.6875 830.289063 1399.378906 "/>
<path style=" stroke:none;fill-rule:nonzero;fill:rgb(69.410706%,64.704895%,28.627014%);fill-opacity:1;" d="M 846.203125 1402.890625 L 845.15625 1410.875 L 848.855469 1411.359375 C 849.707031 1411.472656 850.351563 1411.367188 850.796875 1411.042969 C 851.238281 1410.722656 851.597656 1410.015625 851.871094 1408.921875 L 852.425781 1408.996094 L 851.527344 1415.871094 L 850.972656 1415.796875 C 851.066406 1415.007813 851.039063 1414.414063 850.890625 1414.015625 C 850.746094 1413.621094 850.511719 1413.3125 850.191406 1413.082031 C 849.871094 1412.851563 849.371094 1412.691406 848.695313 1412.605469 L 844.996094 1412.117188 L 844.160156 1418.496094 C 844.023438 1419.527344 844 1420.214844 844.085938 1420.558594 C 844.152344 1420.824219 844.335938 1421.066406 844.632813 1421.285156 C 845.039063 1421.582031 845.480469 1421.761719 845.960938 1421.828125 L 846.695313 1421.921875 L 846.621094 1422.476563 L 837.90625 1421.332031 L 837.980469 1420.78125 L 838.699219 1420.871094 C 839.539063 1420.984375 840.179688 1420.820313 840.621094 1420.378906 C 840.902344 1420.09375 841.125 1419.339844 841.285156 1418.121094 L 843.003906 1405.003906 C 843.140625 1403.976563 843.164063 1403.289063 843.074219 1402.941406 C 843.007813 1402.679688 842.832031 1402.4375 842.546875 1402.214844 C 842.148438 1401.921875 841.703125 1401.742188 841.214844 1401.675781 L 840.496094 1401.582031 L 840.570313 1401.027344 L 855.679688 1403.007813 L 855.289063 1407.496094 L 854.765625 1407.429688 C 854.628906 1406.445313 854.417969 1405.710938 854.132813 1405.21875 C 853.847656 1404.730469 853.464844 1404.355469 852.984375 1404.089844 C 852.507813 1403.820313 851.738281 1403.621094 850.683594 1403.480469 "/>
<path style=" stroke:none;fill-rule:nonzero;fill:rgb(69.410706%,64.704895%,28.627014%);fill-opacity:1;" d="M 866.546875 1404.210938 L 866.851563 1412.257813 L 870.578125 1412.113281 C 871.433594 1412.082031 872.050781 1411.867188 872.4375 1411.476563 C 872.816406 1411.085938 873.054688 1410.328125 873.144531 1409.203125 L 873.699219 1409.1875 L 873.964844 1416.109375 L 873.402344 1416.132813 C 873.363281 1415.339844 873.238281 1414.761719 873.027344 1414.394531 C 872.816406 1414.027344 872.535156 1413.761719 872.183594 1413.589844 C 871.828125 1413.414063 871.308594 1413.339844 870.625 1413.367188 L 866.894531 1413.507813 L 867.140625 1419.9375 C 867.179688 1420.972656 867.269531 1421.652344 867.414063 1421.980469 C 867.523438 1422.230469 867.742188 1422.4375 868.070313 1422.605469 C 868.523438 1422.832031 868.992188 1422.9375 869.476563 1422.914063 L 870.214844 1422.890625 L 870.234375 1423.445313 L 861.449219 1423.777344 L 861.429688 1423.222656 L 862.152344 1423.191406 C 863 1423.160156 863.601563 1422.894531 863.96875 1422.386719 C 864.195313 1422.054688 864.289063 1421.273438 864.242188 1420.046875 L 863.742188 1406.824219 C 863.703125 1405.789063 863.609375 1405.105469 863.46875 1404.777344 C 863.355469 1404.53125 863.144531 1404.324219 862.824219 1404.152344 C 862.382813 1403.929688 861.914063 1403.824219 861.421875 1403.847656 L 860.699219 1403.871094 L 860.675781 1403.316406 L 875.90625 1402.738281 L 876.269531 1407.230469 L 875.742188 1407.246094 C 875.445313 1406.304688 875.113281 1405.613281 874.75 1405.179688 C 874.386719 1404.742188 873.945313 1404.433594 873.433594 1404.253906 C 872.914063 1404.070313 872.125 1404 871.058594 1404.039063 "/>
<path style=" stroke:none;fill-rule:nonzero;fill:rgb(69.410706%,64.704895%,28.627014%);fill-opacity:1;" d="M 893.523438 1419.976563 L 893.625 1420.527344 L 884.992188 1422.101563 L 884.890625 1421.550781 L 885.605469 1421.421875 C 886.4375 1421.269531 886.996094 1420.914063 887.285156 1420.363281 C 887.464844 1420.003906 887.445313 1419.21875 887.222656 1418.007813 L 884.851563 1404.992188 C 884.664063 1403.972656 884.476563 1403.3125 884.289063 1403.007813 C 884.144531 1402.777344 883.902344 1402.601563 883.5625 1402.480469 C 883.085938 1402.320313 882.609375 1402.285156 882.132813 1402.371094 L 881.421875 1402.503906 L 881.320313 1401.953125 L 889.953125 1400.378906 L 890.050781 1400.929688 L 889.324219 1401.0625 C 888.503906 1401.210938 887.945313 1401.5625 887.660156 1402.117188 C 887.46875 1402.480469 887.484375 1403.265625 887.703125 1404.472656 L 890.078125 1417.488281 C 890.261719 1418.511719 890.449219 1419.171875 890.636719 1419.476563 C 890.78125 1419.703125 891.027344 1419.878906 891.378906 1420 C 891.847656 1420.160156 892.320313 1420.195313 892.796875 1420.109375 "/>
<path style=" stroke:none;fill-rule:nonzero;fill:rgb(69.410706%,64.704895%,28.627014%);fill-opacity:1;" d="M 900.339844 1398.703125 L 902.972656 1406.359375 L 907.230469 1404.894531 C 908.335938 1404.515625 909.015625 1404.097656 909.273438 1403.636719 C 909.617188 1403.023438 909.628906 1402.160156 909.304688 1401.035156 L 909.835938 1400.851563 L 912.152344 1407.59375 L 911.625 1407.777344 C 911.164063 1406.878906 910.824219 1406.320313 910.601563 1406.101563 C 910.3125 1405.824219 909.941406 1405.660156 909.488281 1405.601563 C 909.03125 1405.550781 908.398438 1405.660156 907.589844 1405.9375 L 903.335938 1407.402344 L 905.53125 1413.785156 C 905.824219 1414.644531 906.042969 1415.148438 906.179688 1415.308594 C 906.320313 1415.472656 906.503906 1415.570313 906.734375 1415.613281 C 906.964844 1415.660156 907.34375 1415.589844 907.878906 1415.40625 L 911.160156 1414.277344 C 912.253906 1413.898438 913.023438 1413.550781 913.46875 1413.226563 C 913.910156 1412.902344 914.28125 1412.441406 914.585938 1411.835938 C 914.972656 1411.042969 915.269531 1409.945313 915.480469 1408.542969 L 916.050781 1408.347656 L 916.050781 1413.773438 L 901.128906 1418.910156 L 900.945313 1418.382813 L 901.628906 1418.144531 C 902.089844 1417.988281 902.484375 1417.730469 902.816406 1417.371094 C 903.070313 1417.113281 903.199219 1416.8125 903.203125 1416.472656 C 903.210938 1416.128906 903.046875 1415.484375 902.722656 1414.542969 L 898.394531 1401.960938 C 897.972656 1400.730469 897.589844 1400.019531 897.242188 1399.816406 C 896.769531 1399.558594 896.132813 1399.5625 895.335938 1399.835938 L 894.648438 1400.070313 L 894.46875 1399.546875 L 909.390625 1394.410156 L 911.0625 1398.578125 L 910.503906 1398.769531 C 909.957031 1397.820313 909.492188 1397.195313 909.121094 1396.898438 C 908.746094 1396.601563 908.285156 1396.433594 907.742188 1396.398438 C 907.3125 1396.386719 906.617188 1396.546875 905.652344 1396.878906 "/>
<path style=" stroke:none;fill-rule:nonzero;fill:rgb(69.410706%,64.704895%,28.627014%);fill-opacity:1;" d="M 937.171875 1396.511719 L 937.660156 1396.355469 L 938.878906 1402.054688 L 925.089844 1409.882813 L 924.8125 1409.398438 L 925.484375 1409.019531 C 926.234375 1408.589844 926.636719 1408.039063 926.679688 1407.363281 C 926.707031 1406.980469 926.429688 1406.28125 925.855469 1405.265625 L 919.328125 1393.773438 C 918.695313 1392.660156 918.179688 1392.03125 917.773438 1391.894531 C 917.214844 1391.699219 916.597656 1391.796875 915.921875 1392.179688 L 915.253906 1392.5625 L 914.980469 1392.074219 L 923.042969 1387.492188 L 923.316406 1387.980469 C 922.367188 1388.511719 921.753906 1388.972656 921.480469 1389.371094 C 921.199219 1389.773438 921.070313 1390.15625 921.089844 1390.515625 C 921.109375 1390.871094 921.421875 1391.582031 922.019531 1392.644531 L 928.375 1403.832031 C 928.789063 1404.558594 929.140625 1405.019531 929.4375 1405.210938 C 929.644531 1405.335938 929.882813 1405.378906 930.152344 1405.34375 C 930.421875 1405.304688 931.128906 1404.960938 932.277344 1404.308594 L 933.574219 1403.570313 C 934.941406 1402.796875 935.84375 1402.152344 936.28125 1401.636719 C 936.71875 1401.121094 937.019531 1400.480469 937.183594 1399.707031 C 937.347656 1398.9375 937.34375 1397.871094 937.171875 1396.511719 "/>
<path style=" stroke:none;fill-rule:nonzero;fill:rgb(69.410706%,64.704895%,28.627014%);fill-opacity:1;" d="M 950.585938 1391.710938 C 951.734375 1391.089844 952.640625 1390.492188 953.292969 1389.925781 C 955.058594 1388.398438 955.988281 1386.507813 956.078125 1384.261719 C 956.167969 1382.011719 955.296875 1379.824219 953.457031 1377.699219 C 951.605469 1375.5625 949.5625 1374.378906 947.328125 1374.152344 C 945.097656 1373.929688 943.066406 1374.605469 941.242188 1376.1875 C 940.558594 1376.78125 939.871094 1377.566406 939.1875 1378.546875 Z M 947.132813 1396.65625 L 946.769531 1396.230469 L 947.351563 1395.730469 C 948.003906 1395.160156 948.285156 1394.550781 948.199219 1393.894531 C 948.148438 1393.5 947.746094 1392.863281 946.988281 1391.988281 L 938.328125 1381.984375 C 937.492188 1381.019531 936.859375 1380.503906 936.4375 1380.445313 C 935.851563 1380.367188 935.265625 1380.582031 934.679688 1381.089844 L 934.097656 1381.59375 L 933.730469 1381.171875 L 940.03125 1375.714844 C 942.347656 1373.710938 944.335938 1372.449219 945.996094 1371.933594 C 947.65625 1371.410156 949.386719 1371.445313 951.183594 1372.035156 C 952.980469 1372.628906 954.570313 1373.726563 955.960938 1375.332031 C 957.824219 1377.484375 958.730469 1379.855469 958.671875 1382.433594 C 958.601563 1385.316406 957.0625 1388.0625 954.054688 1390.664063 "/>
<path style=" stroke:none;fill-rule:nonzero;fill:rgb(69.410706%,64.704895%,28.627014%);fill-opacity:1;" d="M 863.8125 1179.148438 C 805.949219 1179.148438 758.871094 1226.226563 758.871094 1284.089844 C 758.871094 1341.953125 805.949219 1389.03125 863.8125 1389.03125 C 921.675781 1389.03125 968.753906 1341.953125 968.753906 1284.089844 C 968.753906 1226.226563 921.675781 1179.148438 863.8125 1179.148438 M 863.8125 1394.089844 C 803.160156 1394.089844 753.8125 1344.742188 753.8125 1284.089844 C 753.8125 1223.4375 803.160156 1174.089844 863.8125 1174.089844 C 924.464844 1174.089844 973.808594 1223.4375 973.808594 1284.089844 C 973.808594 1344.742188 924.464844 1394.089844 863.8125 1394.089844 "/>
<path style=" stroke:none;fill-rule:nonzero;fill:rgb(69.410706%,64.704895%,28.627014%);fill-opacity:1;" d="M 863.8125 1137.871094 C 782.214844 1137.871094 715.828125 1204.257813 715.828125 1285.859375 C 715.828125 1367.460938 782.214844 1433.847656 863.8125 1433.847656 C 945.414063 1433.847656 1011.800781 1367.460938 1011.800781 1285.859375 C 1011.800781 1204.257813 945.414063 1137.871094 863.8125 1137.871094 M 863.8125 1440.976563 C 778.28125 1440.976563 708.695313 1371.390625 708.695313 1285.859375 C 708.695313 1200.328125 778.28125 1130.742188 863.8125 1130.742188 C 949.34375 1130.742188 1018.929688 1200.328125 1018.929688 1285.859375 C 1018.929688 1371.390625 949.34375 1440.976563 863.8125 1440.976563 "/>
</g>
</svg>
